<svg width="3691" height="2310" xmlns="http://www.w3.org/2000/svg" xmlns:xlink="http://www.w3.org/1999/xlink" xml:space="preserve" overflow="hidden"><defs><clipPath id="clip0"><rect x="354" y="82" width="3691" height="2310"/></clipPath><radialGradient cx="5113712" cy="3200400" r="6032630" fy="3200400" gradientUnits="userSpaceOnUse" spreadMethod="pad" id="fill1" gradientTransform="matrix(0.000360892 0 0 0.000360892 354 82.0002)"><stop offset="0" stop-color="#61CBF4"/><stop offset="0.3" stop-color="#FFFFFF" stop-opacity="0"/><stop offset="1" stop-color="#FFFFFF" stop-opacity="0"/></radialGradient></defs><g clip-path="url(#clip0)" transform="translate(-354 -82)"><path d="M3821.51 2161.21 3821.51 2274.11 3930.76 2274.11 3930.76 2161.21ZM3709.66 2161.21 3709.66 2274.11 3818.92 2274.11 3818.92 2161.21ZM3597.82 2161.21 3597.82 2274.11 3707.06 2274.11 3707.06 2161.21ZM3485.97 2161.21 3485.97 2274.11 3595.22 2274.11 3595.22 2161.21ZM3374.12 2161.21 3374.12 2274.11 3483.37 2274.11 3483.37 2161.21ZM3262.27 2161.21 3262.27 2274.11 3371.52 2274.11 3371.52 2161.21ZM3150.42 2161.21 3150.42 2274.11 3259.67 2274.11 3259.67 2161.21ZM3038.57 2161.21 3038.57 2274.11 3147.82 2274.11 3147.82 2161.21ZM2926.73 2161.21 2926.73 2274.11 3035.98 2274.11 3035.98 2161.21ZM2814.88 2161.21 2814.88 2274.11 2924.13 2274.11 2924.13 2161.21ZM2703.03 2161.21 2703.03 2274.11 2812.28 2274.11 2812.28 2161.21ZM2591.18 2161.21 2591.18 2274.11 2700.43 2274.11 2700.43 2161.21ZM2479.33 2161.21 2479.33 2274.11 2588.58 2274.11 2588.58 2161.21ZM2367.48 2161.21 2367.48 2274.11 2476.73 2274.11 2476.73 2161.21ZM2255.64 2161.21 2255.64 2274.11 2364.88 2274.11 2364.88 2161.21ZM2143.79 2161.21 2143.79 2274.11 2253.04 2274.11 2253.04 2161.21ZM2031.94 2161.21 2031.94 2274.11 2141.19 2274.11 2141.19 2161.21ZM1920.09 2161.21 1920.09 2274.11 2029.34 2274.11 2029.34 2161.21ZM1808.24 2161.21 1808.24 2274.11 1917.49 2274.11 1917.49 2161.21ZM1696.39 2161.21 1696.39 2274.11 1805.64 2274.11 1805.64 2161.21ZM1584.54 2161.21 1584.54 2274.11 1693.79 2274.11 1693.79 2161.21ZM1472.7 2161.21 1472.7 2274.11 1581.94 2274.11 1581.94 2161.21ZM1360.85 2161.21 1360.85 2274.11 1470.1 2274.11 1470.1 2161.21ZM1249 2161.21 1249 2274.11 1358.25 2274.11 1358.25 2161.21ZM1137.15 2161.21 1137.15 2274.11 1246.4 2274.11 1246.4 2161.21ZM1025.3 2161.21 1025.3 2274.11 1134.55 2274.11 1134.55 2161.21ZM913.454 2161.21 913.454 2274.11 1022.7 2274.11 1022.7 2161.21ZM801.606 2161.21 801.606 2274.11 910.855 2274.11 910.855 2161.21ZM689.754 2161.21 689.754 2274.11 799.007 2274.11 799.007 2161.21ZM577.907 2161.21 577.907 2274.11 687.155 2274.11 687.155 2161.21ZM466.061 2161.21 466.061 2274.11 575.307 2274.11 575.307 2161.21ZM3821.51 2045.71 3821.51 2158.61 3930.76 2158.61 3930.76 2045.71ZM3709.66 2045.71 3709.66 2158.61 3818.92 2158.61 3818.92 2045.71ZM3597.82 2045.71 3597.82 2158.61 3707.06 2158.61 3707.06 2045.71ZM3485.97 2045.71 3485.97 2158.61 3595.22 2158.61 3595.22 2045.71ZM3374.12 2045.71 3374.12 2158.61 3483.37 2158.61 3483.37 2045.71ZM3262.27 2045.71 3262.27 2158.61 3371.52 2158.61 3371.52 2045.71ZM3150.42 2045.71 3150.42 2158.61 3259.67 2158.61 3259.67 2045.71ZM3038.57 2045.71 3038.57 2158.61 3147.82 2158.61 3147.82 2045.71ZM2926.73 2045.71 2926.73 2158.61 3035.98 2158.61 3035.98 2045.71ZM2814.88 2045.71 2814.88 2158.61 2924.13 2158.61 2924.13 2045.71ZM2703.03 2045.71 2703.03 2158.61 2812.28 2158.61 2812.28 2045.71ZM2591.18 2045.71 2591.18 2158.61 2700.43 2158.61 2700.43 2045.71ZM2479.33 2045.71 2479.33 2158.61 2588.58 2158.61 2588.58 2045.71ZM2367.48 2045.71 2367.48 2158.61 2476.73 2158.61 2476.73 2045.71ZM2255.64 2045.71 2255.64 2158.61 2364.88 2158.61 2364.88 2045.71ZM2143.79 2045.71 2143.79 2158.61 2253.04 2158.61 2253.04 2045.71ZM2031.94 2045.71 2031.94 2158.61 2141.19 2158.61 2141.19 2045.71ZM1920.09 2045.71 1920.09 2158.61 2029.34 2158.61 2029.34 2045.71ZM1808.24 2045.71 1808.24 2158.61 1917.49 2158.61 1917.49 2045.71ZM1696.39 2045.71 1696.39 2158.61 1805.64 2158.61 1805.64 2045.71ZM1584.54 2045.71 1584.54 2158.61 1693.79 2158.61 1693.79 2045.71ZM1472.7 2045.71 1472.7 2158.61 1581.94 2158.61 1581.94 2045.71ZM1360.85 2045.71 1360.85 2158.61 1470.1 2158.61 1470.1 2045.71ZM1249 2045.71 1249 2158.61 1358.25 2158.61 1358.25 2045.71ZM1137.15 2045.71 1137.15 2158.61 1246.4 2158.61 1246.4 2045.71ZM1025.3 2045.71 1025.3 2158.61 1134.55 2158.61 1134.55 2045.71ZM913.454 2045.71 913.454 2158.61 1022.7 2158.61 1022.7 2045.71ZM801.606 2045.71 801.606 2158.61 910.855 2158.61 910.855 2045.71ZM689.754 2045.71 689.754 2158.61 799.007 2158.61 799.007 2045.71ZM577.907 2045.71 577.907 2158.61 687.155 2158.61 687.155 2045.71ZM466.061 2045.71 466.061 2158.61 575.307 2158.61 575.307 2045.71ZM3821.51 1930.21 3821.51 2043.11 3930.76 2043.11 3930.76 1930.21ZM3709.66 1930.21 3709.66 2043.11 3818.92 2043.11 3818.92 1930.21ZM3597.82 1930.21 3597.82 2043.11 3707.06 2043.11 3707.06 1930.21ZM3485.97 1930.21 3485.97 2043.11 3595.22 2043.11 3595.22 1930.21ZM3374.12 1930.21 3374.12 2043.11 3483.37 2043.11 3483.37 1930.21ZM3262.27 1930.21 3262.27 2043.11 3371.52 2043.11 3371.52 1930.21ZM3150.42 1930.21 3150.42 2043.11 3259.67 2043.11 3259.67 1930.21ZM3038.57 1930.21 3038.57 2043.11 3147.82 2043.11 3147.82 1930.21ZM2926.73 1930.21 2926.73 2043.11 3035.98 2043.11 3035.98 1930.21ZM2814.88 1930.21 2814.88 2043.11 2924.13 2043.11 2924.13 1930.21ZM2703.03 1930.21 2703.03 2043.11 2812.28 2043.11 2812.28 1930.21ZM2591.18 1930.21 2591.18 2043.11 2700.43 2043.11 2700.43 1930.21ZM2479.33 1930.21 2479.33 2043.11 2588.58 2043.11 2588.58 1930.21ZM2367.48 1930.21 2367.48 2043.11 2476.73 2043.11 2476.73 1930.21ZM2255.64 1930.21 2255.64 2043.11 2364.88 2043.11 2364.88 1930.21ZM2143.79 1930.21 2143.79 2043.11 2253.04 2043.11 2253.04 1930.21ZM2031.94 1930.21 2031.94 2043.11 2141.19 2043.11 2141.19 1930.21ZM1920.09 1930.21 1920.09 2043.11 2029.34 2043.11 2029.34 1930.21ZM1808.24 1930.21 1808.24 2043.11 1917.49 2043.11 1917.49 1930.21ZM1696.39 1930.21 1696.39 2043.11 1805.64 2043.11 1805.64 1930.21ZM1584.54 1930.21 1584.54 2043.11 1693.79 2043.11 1693.79 1930.21ZM1472.7 1930.21 1472.7 2043.11 1581.94 2043.11 1581.94 1930.21ZM1360.85 1930.21 1360.85 2043.11 1470.1 2043.11 1470.1 1930.21ZM1249 1930.21 1249 2043.11 1358.25 2043.11 1358.25 1930.21ZM1137.15 1930.21 1137.15 2043.11 1246.4 2043.11 1246.4 1930.21ZM1025.3 1930.21 1025.3 2043.11 1134.55 2043.11 1134.55 1930.21ZM913.454 1930.21 913.454 2043.11 1022.7 2043.11 1022.7 1930.21ZM801.606 1930.21 801.606 2043.11 910.855 2043.11 910.855 1930.21ZM689.754 1930.21 689.754 2043.11 799.007 2043.11 799.007 1930.21ZM577.907 1930.21 577.907 2043.11 687.155 2043.11 687.155 1930.21ZM466.061 1930.21 466.061 2043.11 575.307 2043.11 575.307 1930.21ZM3821.51 1814.71 3821.51 1927.61 3930.76 1927.61 3930.76 1814.71ZM3709.66 1814.71 3709.66 1927.61 3818.92 1927.61 3818.92 1814.71ZM3597.82 1814.71 3597.82 1927.61 3707.06 1927.61 3707.06 1814.71ZM3485.97 1814.71 3485.97 1927.61 3595.22 1927.61 3595.22 1814.71ZM3374.12 1814.71 3374.12 1927.61 3483.37 1927.61 3483.37 1814.71ZM3262.27 1814.71 3262.27 1927.61 3371.52 1927.61 3371.52 1814.71ZM3150.42 1814.71 3150.42 1927.61 3259.67 1927.61 3259.67 1814.71ZM3038.57 1814.71 3038.57 1927.61 3147.82 1927.61 3147.82 1814.71ZM2926.73 1814.71 2926.73 1927.61 3035.98 1927.61 3035.98 1814.71ZM2814.88 1814.71 2814.88 1927.61 2924.13 1927.61 2924.13 1814.71ZM2703.03 1814.71 2703.03 1927.61 2812.28 1927.61 2812.28 1814.71ZM2591.18 1814.71 2591.18 1927.61 2700.43 1927.61 2700.43 1814.71ZM2479.33 1814.71 2479.33 1927.61 2588.58 1927.61 2588.58 1814.71ZM2367.48 1814.71 2367.48 1927.61 2476.73 1927.61 2476.73 1814.71ZM2255.64 1814.71 2255.64 1927.61 2364.88 1927.61 2364.88 1814.71ZM2143.79 1814.71 2143.79 1927.61 2253.04 1927.61 2253.04 1814.71ZM2031.94 1814.71 2031.94 1927.61 2141.19 1927.61 2141.19 1814.71ZM1920.09 1814.71 1920.09 1927.61 2029.34 1927.61 2029.34 1814.71ZM1808.24 1814.71 1808.24 1927.61 1917.49 1927.61 1917.49 1814.71ZM1696.39 1814.71 1696.39 1927.61 1805.64 1927.61 1805.64 1814.71ZM1584.54 1814.71 1584.54 1927.61 1693.79 1927.61 1693.79 1814.71ZM1472.7 1814.71 1472.7 1927.61 1581.94 1927.61 1581.94 1814.71ZM1360.85 1814.71 1360.85 1927.61 1470.1 1927.61 1470.1 1814.71ZM1249 1814.71 1249 1927.61 1358.25 1927.61 1358.25 1814.71ZM1137.15 1814.71 1137.15 1927.61 1246.4 1927.61 1246.4 1814.71ZM1025.3 1814.71 1025.3 1927.61 1134.55 1927.61 1134.55 1814.71ZM913.454 1814.71 913.454 1927.61 1022.7 1927.61 1022.7 1814.71ZM801.606 1814.71 801.606 1927.61 910.855 1927.61 910.855 1814.71ZM689.754 1814.71 689.754 1927.61 799.007 1927.61 799.007 1814.71ZM577.907 1814.71 577.907 1927.61 687.155 1927.61 687.155 1814.71ZM466.061 1814.71 466.061 1927.61 575.307 1927.61 575.307 1814.71ZM3821.51 1699.21 3821.51 1812.11 3930.76 1812.11 3930.76 1699.21ZM3709.66 1699.21 3709.66 1812.11 3818.92 1812.11 3818.92 1699.21ZM3597.82 1699.21 3597.82 1812.11 3707.06 1812.11 3707.06 1699.21ZM3485.97 1699.21 3485.97 1812.11 3595.22 1812.11 3595.22 1699.21ZM3374.12 1699.21 3374.12 1812.11 3483.37 1812.11 3483.37 1699.21ZM3262.27 1699.21 3262.27 1812.11 3371.52 1812.11 3371.52 1699.21ZM3150.42 1699.21 3150.42 1812.11 3259.67 1812.11 3259.67 1699.21ZM3038.57 1699.21 3038.57 1812.11 3147.82 1812.11 3147.82 1699.21ZM2926.73 1699.21 2926.73 1812.11 3035.98 1812.11 3035.98 1699.21ZM2814.88 1699.21 2814.88 1812.11 2924.13 1812.11 2924.13 1699.21ZM2703.03 1699.21 2703.03 1812.11 2812.28 1812.11 2812.28 1699.21ZM2591.18 1699.21 2591.18 1812.11 2700.43 1812.11 2700.43 1699.21ZM2479.33 1699.21 2479.33 1812.11 2588.58 1812.11 2588.58 1699.21ZM2367.48 1699.21 2367.48 1812.11 2476.73 1812.11 2476.73 1699.21ZM2255.64 1699.21 2255.64 1812.11 2364.88 1812.11 2364.88 1699.21ZM2143.79 1699.21 2143.79 1812.11 2253.04 1812.11 2253.04 1699.21ZM2031.94 1699.21 2031.94 1812.11 2141.19 1812.11 2141.19 1699.21ZM1920.09 1699.21 1920.09 1812.11 2029.34 1812.11 2029.34 1699.21ZM1808.24 1699.21 1808.24 1812.11 1917.49 1812.11 1917.49 1699.21ZM1696.39 1699.21 1696.39 1812.11 1805.64 1812.11 1805.64 1699.21ZM1584.54 1699.21 1584.54 1812.11 1693.79 1812.11 1693.79 1699.21ZM1472.7 1699.21 1472.7 1812.11 1581.94 1812.11 1581.94 1699.21ZM1360.85 1699.21 1360.85 1812.11 1470.1 1812.11 1470.1 1699.21ZM1249 1699.21 1249 1812.11 1358.25 1812.11 1358.25 1699.21ZM1137.15 1699.21 1137.15 1812.11 1246.4 1812.11 1246.4 1699.21ZM1025.3 1699.21 1025.3 1812.11 1134.55 1812.11 1134.55 1699.21ZM913.454 1699.21 913.454 1812.11 1022.7 1812.11 1022.7 1699.21ZM801.606 1699.21 801.606 1812.11 910.855 1812.11 910.855 1699.21ZM689.754 1699.21 689.754 1812.11 799.007 1812.11 799.007 1699.21ZM577.907 1699.21 577.907 1812.11 687.155 1812.11 687.155 1699.21ZM466.061 1699.21 466.061 1812.11 575.307 1812.11 575.307 1699.21ZM3821.51 1583.71 3821.51 1696.61 3930.76 1696.61 3930.76 1583.71ZM3709.66 1583.71 3709.66 1696.61 3818.92 1696.61 3818.92 1583.71ZM3597.82 1583.71 3597.82 1696.61 3707.06 1696.61 3707.06 1583.71ZM3485.97 1583.71 3485.97 1696.61 3595.22 1696.61 3595.22 1583.71ZM3374.12 1583.71 3374.12 1696.61 3483.37 1696.61 3483.37 1583.71ZM3262.27 1583.71 3262.27 1696.61 3371.52 1696.61 3371.52 1583.71ZM3150.42 1583.71 3150.42 1696.61 3259.67 1696.61 3259.67 1583.71ZM3038.57 1583.71 3038.57 1696.61 3147.82 1696.61 3147.82 1583.71ZM2926.73 1583.71 2926.73 1696.61 3035.98 1696.61 3035.98 1583.71ZM2814.88 1583.71 2814.88 1696.61 2924.13 1696.61 2924.13 1583.71ZM2703.03 1583.71 2703.03 1696.61 2812.28 1696.61 2812.28 1583.71ZM2591.18 1583.71 2591.18 1696.61 2700.43 1696.61 2700.43 1583.71ZM2479.33 1583.71 2479.33 1696.61 2588.58 1696.61 2588.58 1583.71ZM2367.48 1583.71 2367.48 1696.61 2476.73 1696.61 2476.73 1583.71ZM2255.64 1583.71 2255.64 1696.61 2364.88 1696.61 2364.88 1583.71ZM2143.79 1583.71 2143.79 1696.61 2253.04 1696.61 2253.04 1583.71ZM2031.94 1583.71 2031.94 1696.61 2141.19 1696.61 2141.19 1583.71ZM1920.09 1583.71 1920.09 1696.61 2029.34 1696.61 2029.34 1583.71ZM1808.24 1583.71 1808.24 1696.61 1917.49 1696.61 1917.49 1583.71ZM1696.39 1583.71 1696.39 1696.61 1805.64 1696.61 1805.64 1583.71ZM1584.54 1583.71 1584.54 1696.61 1693.79 1696.61 1693.79 1583.71ZM1472.7 1583.71 1472.7 1696.61 1581.94 1696.61 1581.94 1583.71ZM1360.85 1583.71 1360.85 1696.61 1470.1 1696.61 1470.1 1583.71ZM1249 1583.71 1249 1696.61 1358.25 1696.61 1358.25 1583.71ZM1137.15 1583.71 1137.15 1696.61 1246.4 1696.61 1246.4 1583.71ZM1025.3 1583.71 1025.3 1696.61 1134.55 1696.61 1134.55 1583.71ZM913.454 1583.71 913.454 1696.61 1022.7 1696.61 1022.7 1583.71ZM801.606 1583.71 801.606 1696.61 910.855 1696.61 910.855 1583.71ZM689.754 1583.71 689.754 1696.61 799.007 1696.61 799.007 1583.71ZM577.907 1583.71 577.907 1696.61 687.155 1696.61 687.155 1583.71ZM466.061 1583.71 466.061 1696.61 575.307 1696.61 575.307 1583.71ZM3821.51 1468.21 3821.51 1581.11 3930.76 1581.11 3930.76 1468.21ZM3709.66 1468.21 3709.66 1581.11 3818.92 1581.11 3818.92 1468.21ZM3597.82 1468.21 3597.82 1581.11 3707.06 1581.11 3707.06 1468.21ZM3485.97 1468.21 3485.97 1581.11 3595.22 1581.11 3595.22 1468.21ZM3374.12 1468.21 3374.12 1581.11 3483.37 1581.11 3483.37 1468.21ZM3262.27 1468.21 3262.27 1581.11 3371.52 1581.11 3371.52 1468.21ZM3150.42 1468.21 3150.42 1581.11 3259.67 1581.11 3259.67 1468.21ZM3038.57 1468.21 3038.57 1581.11 3147.82 1581.11 3147.82 1468.21ZM2926.73 1468.21 2926.73 1581.11 3035.98 1581.11 3035.98 1468.21ZM2814.88 1468.21 2814.88 1581.11 2924.13 1581.11 2924.13 1468.21ZM2703.03 1468.21 2703.03 1581.11 2812.28 1581.11 2812.28 1468.21ZM2591.18 1468.21 2591.18 1581.11 2700.43 1581.11 2700.43 1468.21ZM2479.33 1468.21 2479.33 1581.11 2588.58 1581.11 2588.58 1468.21ZM2367.48 1468.21 2367.48 1581.11 2476.73 1581.11 2476.73 1468.21ZM2255.64 1468.21 2255.64 1581.11 2364.88 1581.11 2364.88 1468.21ZM2143.79 1468.21 2143.79 1581.11 2253.04 1581.11 2253.04 1468.21ZM2031.94 1468.21 2031.94 1581.11 2141.19 1581.11 2141.19 1468.21ZM1920.09 1468.21 1920.09 1581.11 2029.34 1581.11 2029.34 1468.21ZM1808.24 1468.21 1808.24 1581.11 1917.49 1581.11 1917.49 1468.21ZM1696.39 1468.21 1696.39 1581.11 1805.64 1581.11 1805.64 1468.21ZM1584.54 1468.21 1584.54 1581.11 1693.79 1581.11 1693.79 1468.21ZM1472.7 1468.21 1472.7 1581.11 1581.94 1581.11 1581.94 1468.21ZM1360.85 1468.21 1360.85 1581.11 1470.1 1581.11 1470.1 1468.21ZM1249 1468.21 1249 1581.11 1358.25 1581.11 1358.25 1468.21ZM1137.15 1468.21 1137.15 1581.11 1246.4 1581.11 1246.4 1468.21ZM1025.3 1468.21 1025.3 1581.11 1134.55 1581.11 1134.55 1468.21ZM913.454 1468.21 913.454 1581.11 1022.7 1581.11 1022.7 1468.21ZM801.606 1468.21 801.606 1581.11 910.855 1581.11 910.855 1468.21ZM689.754 1468.21 689.754 1581.11 799.007 1581.11 799.007 1468.21ZM577.907 1468.21 577.907 1581.11 687.155 1581.11 687.155 1468.21ZM466.061 1468.21 466.061 1581.11 575.307 1581.11 575.307 1468.21ZM3821.51 1352.71 3821.51 1465.61 3930.76 1465.61 3930.76 1352.71ZM3709.66 1352.71 3709.66 1465.61 3818.92 1465.61 3818.92 1352.71ZM3597.82 1352.71 3597.82 1465.61 3707.06 1465.61 3707.06 1352.71ZM3485.97 1352.71 3485.97 1465.61 3595.22 1465.61 3595.22 1352.71ZM3374.12 1352.71 3374.12 1465.61 3483.37 1465.61 3483.37 1352.71ZM3262.27 1352.71 3262.27 1465.61 3371.52 1465.61 3371.52 1352.71ZM3150.42 1352.71 3150.42 1465.61 3259.67 1465.61 3259.67 1352.71ZM3038.57 1352.71 3038.57 1465.61 3147.82 1465.61 3147.82 1352.71ZM2926.73 1352.71 2926.73 1465.61 3035.98 1465.61 3035.98 1352.71ZM2814.88 1352.71 2814.88 1465.61 2924.13 1465.61 2924.13 1352.71ZM2703.03 1352.71 2703.03 1465.61 2812.28 1465.61 2812.28 1352.71ZM2591.18 1352.71 2591.18 1465.61 2700.43 1465.61 2700.43 1352.71ZM2479.33 1352.71 2479.33 1465.61 2588.58 1465.61 2588.58 1352.71ZM2367.48 1352.71 2367.48 1465.61 2476.73 1465.61 2476.73 1352.71ZM2255.64 1352.71 2255.64 1465.61 2364.88 1465.61 2364.88 1352.71ZM2143.79 1352.71 2143.79 1465.61 2253.04 1465.61 2253.04 1352.71ZM2031.94 1352.71 2031.94 1465.61 2141.19 1465.61 2141.19 1352.71ZM1920.09 1352.71 1920.09 1465.61 2029.34 1465.61 2029.34 1352.71ZM1808.24 1352.71 1808.24 1465.61 1917.49 1465.61 1917.49 1352.71ZM1696.39 1352.71 1696.39 1465.61 1805.64 1465.61 1805.64 1352.71ZM1584.54 1352.71 1584.54 1465.61 1693.79 1465.61 1693.79 1352.71ZM1472.7 1352.71 1472.7 1465.61 1581.94 1465.61 1581.94 1352.71ZM1360.85 1352.71 1360.85 1465.61 1470.1 1465.61 1470.1 1352.71ZM1249 1352.71 1249 1465.61 1358.25 1465.61 1358.25 1352.71ZM1137.15 1352.71 1137.15 1465.61 1246.4 1465.61 1246.4 1352.71ZM1025.3 1352.71 1025.3 1465.61 1134.55 1465.61 1134.55 1352.71ZM913.454 1352.71 913.454 1465.61 1022.7 1465.61 1022.7 1352.71ZM801.606 1352.71 801.606 1465.61 910.855 1465.61 910.855 1352.71ZM689.754 1352.71 689.754 1465.61 799.007 1465.61 799.007 1352.71ZM577.907 1352.71 577.907 1465.61 687.155 1465.61 687.155 1352.71ZM466.061 1352.71 466.061 1465.61 575.307 1465.61 575.307 1352.71ZM3821.51 1237.21 3821.51 1350.11 3930.76 1350.11 3930.76 1237.21ZM3709.66 1237.21 3709.66 1350.11 3818.92 1350.11 3818.92 1237.21ZM3597.82 1237.21 3597.82 1350.11 3707.06 1350.11 3707.06 1237.21ZM3485.97 1237.21 3485.97 1350.11 3595.22 1350.11 3595.22 1237.21ZM3374.12 1237.21 3374.12 1350.11 3483.37 1350.11 3483.37 1237.21ZM3262.27 1237.21 3262.27 1350.11 3371.52 1350.11 3371.52 1237.21ZM3150.42 1237.21 3150.42 1350.11 3259.67 1350.11 3259.67 1237.21ZM3038.57 1237.21 3038.57 1350.11 3147.82 1350.11 3147.82 1237.21ZM2926.73 1237.21 2926.73 1350.11 3035.98 1350.11 3035.98 1237.21ZM2814.88 1237.21 2814.88 1350.11 2924.13 1350.11 2924.13 1237.21ZM2703.03 1237.21 2703.03 1350.11 2812.28 1350.11 2812.28 1237.21ZM2591.18 1237.21 2591.18 1350.11 2700.43 1350.11 2700.43 1237.21ZM2479.33 1237.21 2479.33 1350.11 2588.58 1350.11 2588.58 1237.21ZM2367.48 1237.21 2367.48 1350.11 2476.73 1350.11 2476.73 1237.21ZM2255.64 1237.21 2255.64 1350.11 2364.88 1350.11 2364.88 1237.21ZM2143.79 1237.21 2143.79 1350.11 2253.04 1350.11 2253.04 1237.21ZM2031.94 1237.21 2031.94 1350.11 2141.19 1350.11 2141.19 1237.21ZM1920.09 1237.21 1920.09 1350.11 2029.34 1350.11 2029.34 1237.21ZM1808.24 1237.21 1808.24 1350.11 1917.49 1350.11 1917.49 1237.21ZM1696.39 1237.21 1696.39 1350.11 1805.64 1350.11 1805.64 1237.21ZM1584.54 1237.21 1584.54 1350.11 1693.79 1350.11 1693.79 1237.21ZM1472.7 1237.21 1472.7 1350.11 1581.94 1350.11 1581.94 1237.21ZM1360.85 1237.21 1360.85 1350.11 1470.1 1350.11 1470.1 1237.21ZM1249 1237.21 1249 1350.11 1358.25 1350.11 1358.25 1237.21ZM1137.15 1237.21 1137.15 1350.11 1246.4 1350.11 1246.4 1237.21ZM1025.3 1237.21 1025.3 1350.11 1134.55 1350.11 1134.55 1237.21ZM913.454 1237.21 913.454 1350.11 1022.7 1350.11 1022.7 1237.21ZM801.606 1237.21 801.606 1350.11 910.855 1350.11 910.855 1237.21ZM689.754 1237.21 689.754 1350.11 799.007 1350.11 799.007 1237.21ZM577.907 1237.21 577.907 1350.11 687.155 1350.11 687.155 1237.21ZM466.061 1237.21 466.061 1350.11 575.307 1350.11 575.307 1237.21ZM3821.51 1121.71 3821.51 1234.61 3930.76 1234.61 3930.76 1121.71ZM3709.66 1121.71 3709.66 1234.61 3818.92 1234.61 3818.92 1121.71ZM3597.82 1121.71 3597.82 1234.61 3707.06 1234.61 3707.06 1121.71ZM3485.97 1121.71 3485.97 1234.61 3595.22 1234.61 3595.22 1121.71ZM3374.12 1121.71 3374.12 1234.61 3483.37 1234.61 3483.37 1121.71ZM3262.27 1121.71 3262.27 1234.61 3371.52 1234.61 3371.52 1121.71ZM3150.42 1121.71 3150.42 1234.61 3259.67 1234.61 3259.67 1121.71ZM3038.57 1121.71 3038.57 1234.61 3147.82 1234.61 3147.82 1121.71ZM2926.73 1121.71 2926.73 1234.61 3035.98 1234.61 3035.98 1121.71ZM2814.88 1121.71 2814.88 1234.61 2924.13 1234.61 2924.13 1121.71ZM2703.03 1121.71 2703.03 1234.61 2812.28 1234.61 2812.28 1121.71ZM2591.18 1121.71 2591.18 1234.61 2700.43 1234.61 2700.43 1121.71ZM2479.33 1121.71 2479.33 1234.61 2588.58 1234.61 2588.58 1121.71ZM2367.48 1121.71 2367.48 1234.61 2476.73 1234.61 2476.73 1121.71ZM2255.64 1121.71 2255.64 1234.61 2364.88 1234.61 2364.88 1121.71ZM2143.79 1121.71 2143.79 1234.61 2253.04 1234.61 2253.04 1121.71ZM2031.94 1121.71 2031.94 1234.61 2141.19 1234.61 2141.19 1121.71ZM1920.09 1121.71 1920.09 1234.61 2029.34 1234.61 2029.34 1121.71ZM1808.24 1121.71 1808.24 1234.61 1917.49 1234.61 1917.49 1121.71ZM1696.39 1121.71 1696.39 1234.61 1805.64 1234.61 1805.64 1121.71ZM1584.54 1121.71 1584.54 1234.61 1693.79 1234.61 1693.79 1121.71ZM1472.7 1121.71 1472.7 1234.61 1581.94 1234.61 1581.94 1121.71ZM1360.85 1121.71 1360.85 1234.61 1470.1 1234.61 1470.1 1121.71ZM1249 1121.71 1249 1234.61 1358.25 1234.61 1358.25 1121.71ZM1137.15 1121.71 1137.15 1234.61 1246.4 1234.61 1246.4 1121.71ZM1025.3 1121.71 1025.3 1234.61 1134.55 1234.61 1134.55 1121.71ZM913.454 1121.71 913.454 1234.61 1022.7 1234.61 1022.7 1121.71ZM801.606 1121.71 801.606 1234.61 910.855 1234.61 910.855 1121.71ZM689.754 1121.71 689.754 1234.61 799.007 1234.61 799.007 1121.71ZM577.907 1121.71 577.907 1234.61 687.155 1234.61 687.155 1121.71ZM466.061 1121.71 466.061 1234.61 575.307 1234.61 575.307 1121.71ZM3821.51 1006.21 3821.51 1119.11 3930.76 1119.11 3930.76 1006.21ZM3709.66 1006.21 3709.66 1119.11 3818.92 1119.11 3818.92 1006.21ZM3597.82 1006.21 3597.82 1119.11 3707.06 1119.11 3707.06 1006.21ZM3485.97 1006.21 3485.97 1119.11 3595.22 1119.11 3595.22 1006.21ZM3374.12 1006.21 3374.12 1119.11 3483.37 1119.11 3483.37 1006.21ZM3262.27 1006.21 3262.27 1119.11 3371.52 1119.11 3371.52 1006.21ZM3150.42 1006.21 3150.42 1119.11 3259.67 1119.11 3259.67 1006.21ZM3038.57 1006.21 3038.57 1119.11 3147.82 1119.11 3147.82 1006.21ZM2926.73 1006.21 2926.73 1119.11 3035.98 1119.11 3035.98 1006.21ZM2814.88 1006.21 2814.88 1119.11 2924.13 1119.11 2924.13 1006.21ZM2703.03 1006.21 2703.03 1119.11 2812.28 1119.11 2812.28 1006.21ZM2591.18 1006.21 2591.18 1119.11 2700.43 1119.11 2700.43 1006.21ZM2479.33 1006.21 2479.33 1119.11 2588.58 1119.11 2588.58 1006.21ZM2367.48 1006.21 2367.48 1119.11 2476.73 1119.11 2476.73 1006.21ZM2255.64 1006.21 2255.64 1119.11 2364.88 1119.11 2364.88 1006.21ZM2143.79 1006.21 2143.79 1119.11 2253.04 1119.11 2253.04 1006.21ZM2031.94 1006.21 2031.94 1119.11 2141.19 1119.11 2141.19 1006.21ZM1920.09 1006.21 1920.09 1119.11 2029.34 1119.11 2029.34 1006.21ZM1808.24 1006.21 1808.24 1119.11 1917.49 1119.11 1917.49 1006.21ZM1696.39 1006.21 1696.39 1119.11 1805.64 1119.11 1805.64 1006.21ZM1584.54 1006.21 1584.54 1119.11 1693.79 1119.11 1693.79 1006.21ZM1472.7 1006.21 1472.7 1119.11 1581.94 1119.11 1581.94 1006.21ZM1360.85 1006.21 1360.85 1119.11 1470.1 1119.11 1470.1 1006.21ZM1249 1006.21 1249 1119.11 1358.25 1119.11 1358.25 1006.21ZM1137.15 1006.21 1137.15 1119.11 1246.4 1119.11 1246.4 1006.21ZM1025.3 1006.21 1025.3 1119.11 1134.55 1119.11 1134.55 1006.21ZM913.454 1006.21 913.454 1119.11 1022.7 1119.11 1022.7 1006.21ZM801.606 1006.21 801.606 1119.11 910.855 1119.11 910.855 1006.21ZM689.754 1006.21 689.754 1119.11 799.007 1119.11 799.007 1006.21ZM577.907 1006.21 577.907 1119.11 687.155 1119.11 687.155 1006.21ZM466.061 1006.21 466.061 1119.11 575.307 1119.11 575.307 1006.21ZM3821.51 890.71 3821.51 1003.61 3930.76 1003.61 3930.76 890.71ZM3709.66 890.71 3709.66 1003.61 3818.92 1003.61 3818.92 890.71ZM3597.82 890.71 3597.82 1003.61 3707.06 1003.61 3707.06 890.71ZM3485.97 890.71 3485.97 1003.61 3595.22 1003.61 3595.22 890.71ZM3374.12 890.71 3374.12 1003.61 3483.37 1003.61 3483.37 890.71ZM3262.27 890.71 3262.27 1003.61 3371.52 1003.61 3371.52 890.71ZM3150.42 890.71 3150.42 1003.61 3259.67 1003.61 3259.67 890.71ZM3038.57 890.71 3038.57 1003.61 3147.82 1003.61 3147.82 890.71ZM2926.73 890.71 2926.73 1003.61 3035.98 1003.61 3035.98 890.71ZM2814.88 890.71 2814.88 1003.61 2924.13 1003.61 2924.13 890.71ZM2703.03 890.71 2703.03 1003.61 2812.28 1003.61 2812.28 890.71ZM2591.18 890.71 2591.18 1003.61 2700.43 1003.61 2700.43 890.71ZM2479.33 890.71 2479.33 1003.61 2588.58 1003.61 2588.58 890.71ZM2367.48 890.71 2367.48 1003.61 2476.73 1003.61 2476.73 890.71ZM2255.64 890.71 2255.64 1003.61 2364.88 1003.61 2364.88 890.71ZM2143.79 890.71 2143.79 1003.61 2253.04 1003.61 2253.04 890.71ZM2031.94 890.71 2031.94 1003.61 2141.19 1003.61 2141.19 890.71ZM1920.09 890.71 1920.09 1003.61 2029.34 1003.61 2029.34 890.71ZM1808.24 890.71 1808.24 1003.61 1917.49 1003.61 1917.49 890.71ZM1696.39 890.71 1696.39 1003.61 1805.64 1003.61 1805.64 890.71ZM1584.54 890.71 1584.54 1003.61 1693.79 1003.61 1693.79 890.71ZM1472.7 890.71 1472.7 1003.61 1581.94 1003.61 1581.94 890.71ZM1360.85 890.71 1360.85 1003.61 1470.1 1003.61 1470.1 890.71ZM1249 890.71 1249 1003.61 1358.25 1003.61 1358.25 890.71ZM1137.15 890.71 1137.15 1003.61 1246.4 1003.61 1246.4 890.71ZM1025.3 890.71 1025.3 1003.61 1134.55 1003.61 1134.55 890.71ZM913.454 890.71 913.454 1003.61 1022.7 1003.61 1022.7 890.71ZM801.606 890.71 801.606 1003.61 910.855 1003.61 910.855 890.71ZM689.754 890.71 689.754 1003.61 799.007 1003.61 799.007 890.71ZM577.907 890.71 577.907 1003.61 687.155 1003.61 687.155 890.71ZM466.061 890.71 466.061 1003.61 575.307 1003.61 575.307 890.71ZM3821.51 775.21 3821.51 888.111 3930.76 888.111 3930.76 775.21ZM3709.66 775.21 3709.66 888.111 3818.92 888.111 3818.92 775.21ZM3597.82 775.21 3597.82 888.111 3707.06 888.111 3707.06 775.21ZM3485.97 775.21 3485.97 888.111 3595.22 888.111 3595.22 775.21ZM3374.12 775.21 3374.12 888.111 3483.37 888.111 3483.37 775.21ZM3262.27 775.21 3262.27 888.111 3371.52 888.111 3371.52 775.21ZM3150.42 775.21 3150.42 888.111 3259.67 888.111 3259.67 775.21ZM3038.57 775.21 3038.57 888.111 3147.82 888.111 3147.82 775.21ZM2926.73 775.21 2926.73 888.111 3035.98 888.111 3035.98 775.21ZM2814.88 775.21 2814.88 888.111 2924.13 888.111 2924.13 775.21ZM2703.03 775.21 2703.03 888.111 2812.28 888.111 2812.28 775.21ZM2591.18 775.21 2591.18 888.111 2700.43 888.111 2700.43 775.21ZM2479.33 775.21 2479.33 888.111 2588.58 888.111 2588.58 775.21ZM2367.48 775.21 2367.48 888.111 2476.73 888.111 2476.73 775.21ZM2255.64 775.21 2255.64 888.111 2364.88 888.111 2364.88 775.21ZM2143.79 775.21 2143.79 888.111 2253.04 888.111 2253.04 775.21ZM2031.94 775.21 2031.94 888.111 2141.19 888.111 2141.19 775.21ZM1920.09 775.21 1920.09 888.111 2029.34 888.111 2029.34 775.21ZM1808.24 775.21 1808.24 888.111 1917.49 888.111 1917.49 775.21ZM1696.39 775.21 1696.39 888.111 1805.64 888.111 1805.64 775.21ZM1584.54 775.21 1584.54 888.111 1693.79 888.111 1693.79 775.21ZM1472.7 775.21 1472.7 888.111 1581.94 888.111 1581.94 775.21ZM1360.85 775.21 1360.85 888.111 1470.1 888.111 1470.1 775.21ZM1249 775.21 1249 888.111 1358.25 888.111 1358.25 775.21ZM1137.15 775.21 1137.15 888.111 1246.4 888.111 1246.4 775.21ZM1025.3 775.21 1025.3 888.111 1134.55 888.111 1134.55 775.21ZM913.454 775.21 913.454 888.111 1022.7 888.111 1022.7 775.21ZM801.606 775.21 801.606 888.111 910.855 888.111 910.855 775.21ZM689.754 775.21 689.754 888.111 799.007 888.111 799.007 775.21ZM577.907 775.21 577.907 888.111 687.155 888.111 687.155 775.21ZM466.061 775.21 466.061 888.111 575.307 888.111 575.307 775.21ZM3821.51 659.71 3821.51 772.61 3930.76 772.61 3930.76 659.71ZM3709.66 659.71 3709.66 772.61 3818.92 772.61 3818.92 659.71ZM3597.82 659.71 3597.82 772.61 3707.06 772.61 3707.06 659.71ZM3485.97 659.71 3485.97 772.61 3595.22 772.61 3595.22 659.71ZM3374.12 659.71 3374.12 772.61 3483.37 772.61 3483.37 659.71ZM3262.27 659.71 3262.27 772.61 3371.52 772.61 3371.52 659.71ZM3150.42 659.71 3150.42 772.61 3259.67 772.61 3259.67 659.71ZM3038.57 659.71 3038.57 772.61 3147.82 772.61 3147.82 659.71ZM2926.73 659.71 2926.73 772.61 3035.98 772.61 3035.98 659.71ZM2814.88 659.71 2814.88 772.61 2924.13 772.61 2924.13 659.71ZM2703.03 659.71 2703.03 772.61 2812.28 772.61 2812.28 659.71ZM2591.18 659.71 2591.18 772.61 2700.43 772.61 2700.43 659.71ZM2479.33 659.71 2479.33 772.61 2588.58 772.61 2588.58 659.71ZM2367.48 659.71 2367.48 772.61 2476.73 772.61 2476.73 659.71ZM2255.64 659.71 2255.64 772.61 2364.88 772.61 2364.88 659.71ZM2143.79 659.71 2143.79 772.61 2253.04 772.61 2253.04 659.71ZM2031.94 659.71 2031.94 772.61 2141.19 772.61 2141.19 659.71ZM1920.09 659.71 1920.09 772.61 2029.34 772.61 2029.34 659.71ZM1808.24 659.71 1808.24 772.61 1917.49 772.61 1917.49 659.71ZM1696.39 659.71 1696.39 772.61 1805.64 772.61 1805.64 659.71ZM1584.54 659.71 1584.54 772.61 1693.79 772.61 1693.79 659.71ZM1472.7 659.71 1472.7 772.61 1581.94 772.61 1581.94 659.71ZM1360.85 659.71 1360.85 772.61 1470.1 772.61 1470.1 659.71ZM1249 659.71 1249 772.61 1358.25 772.61 1358.25 659.71ZM1137.15 659.71 1137.15 772.61 1246.4 772.61 1246.4 659.71ZM1025.3 659.71 1025.3 772.61 1134.55 772.61 1134.55 659.71ZM913.454 659.71 913.454 772.61 1022.7 772.61 1022.7 659.71ZM801.606 659.71 801.606 772.61 910.855 772.61 910.855 659.71ZM689.754 659.71 689.754 772.61 799.007 772.61 799.007 659.71ZM577.907 659.71 577.907 772.61 687.155 772.61 687.155 659.71ZM466.061 659.71 466.061 772.61 575.307 772.61 575.307 659.71ZM3821.51 544.21 3821.51 657.112 3930.76 657.112 3930.76 544.21ZM3709.66 544.21 3709.66 657.112 3818.92 657.112 3818.92 544.21ZM3597.82 544.21 3597.82 657.112 3707.06 657.112 3707.06 544.21ZM3485.97 544.21 3485.97 657.112 3595.22 657.112 3595.22 544.21ZM3374.12 544.21 3374.12 657.112 3483.37 657.112 3483.37 544.21ZM3262.27 544.21 3262.27 657.112 3371.52 657.112 3371.52 544.21ZM3150.42 544.21 3150.42 657.112 3259.67 657.112 3259.67 544.21ZM3038.57 544.21 3038.57 657.112 3147.82 657.112 3147.82 544.21ZM2926.73 544.21 2926.73 657.112 3035.98 657.112 3035.98 544.21ZM2814.88 544.21 2814.88 657.112 2924.13 657.112 2924.13 544.21ZM2703.03 544.21 2703.03 657.112 2812.28 657.112 2812.28 544.21ZM2591.18 544.21 2591.18 657.112 2700.43 657.112 2700.43 544.21ZM2479.33 544.21 2479.33 657.112 2588.58 657.112 2588.58 544.21ZM2367.48 544.21 2367.48 657.112 2476.73 657.112 2476.73 544.21ZM2255.64 544.21 2255.64 657.112 2364.88 657.112 2364.88 544.21ZM2143.79 544.21 2143.79 657.112 2253.04 657.112 2253.04 544.21ZM2031.94 544.21 2031.94 657.112 2141.19 657.112 2141.19 544.21ZM1920.09 544.21 1920.09 657.112 2029.34 657.112 2029.34 544.21ZM1808.24 544.21 1808.24 657.112 1917.49 657.112 1917.49 544.21ZM1696.39 544.21 1696.39 657.112 1805.64 657.112 1805.64 544.21ZM1584.54 544.21 1584.54 657.112 1693.79 657.112 1693.79 544.21ZM1472.7 544.21 1472.7 657.112 1581.94 657.112 1581.94 544.21ZM1360.85 544.21 1360.85 657.112 1470.1 657.112 1470.1 544.21ZM1249 544.21 1249 657.112 1358.25 657.112 1358.25 544.21ZM1137.15 544.21 1137.15 657.112 1246.4 657.112 1246.4 544.21ZM1025.3 544.21 1025.3 657.112 1134.55 657.112 1134.55 544.21ZM913.454 544.21 913.454 657.112 1022.7 657.112 1022.7 544.21ZM801.606 544.21 801.606 657.112 910.855 657.112 910.855 544.21ZM689.754 544.21 689.754 657.112 799.007 657.112 799.007 544.21ZM577.907 544.21 577.907 657.112 687.155 657.112 687.155 544.21ZM466.061 544.21 466.061 657.112 575.307 657.112 575.307 544.21ZM3821.51 428.71 3821.51 541.611 3930.76 541.611 3930.76 428.71ZM3709.66 428.71 3709.66 541.611 3818.92 541.611 3818.92 428.71ZM3597.82 428.71 3597.82 541.611 3707.06 541.611 3707.06 428.71ZM3485.97 428.71 3485.97 541.611 3595.22 541.611 3595.22 428.71ZM3374.12 428.71 3374.12 541.611 3483.37 541.611 3483.37 428.71ZM3262.27 428.71 3262.27 541.611 3371.52 541.611 3371.52 428.71ZM3150.42 428.71 3150.42 541.611 3259.67 541.611 3259.67 428.71ZM3038.57 428.71 3038.57 541.611 3147.82 541.611 3147.82 428.71ZM2926.73 428.71 2926.73 541.611 3035.98 541.611 3035.98 428.71ZM2814.88 428.71 2814.88 541.611 2924.13 541.611 2924.13 428.71ZM2703.03 428.71 2703.03 541.611 2812.28 541.611 2812.28 428.71ZM2591.18 428.71 2591.18 541.611 2700.43 541.611 2700.43 428.71ZM2479.33 428.71 2479.33 541.611 2588.58 541.611 2588.58 428.71ZM2367.48 428.71 2367.48 541.611 2476.73 541.611 2476.73 428.71ZM2255.64 428.71 2255.64 541.611 2364.88 541.611 2364.88 428.71ZM2143.79 428.71 2143.79 541.611 2253.04 541.611 2253.04 428.71ZM2031.94 428.71 2031.94 541.611 2141.19 541.611 2141.19 428.71ZM1920.09 428.71 1920.09 541.611 2029.34 541.611 2029.34 428.71ZM1808.24 428.71 1808.24 541.611 1917.49 541.611 1917.49 428.71ZM1696.39 428.71 1696.39 541.611 1805.64 541.611 1805.64 428.71ZM1584.54 428.71 1584.54 541.611 1693.79 541.611 1693.79 428.71ZM1472.7 428.71 1472.7 541.611 1581.94 541.611 1581.94 428.71ZM1360.85 428.71 1360.85 541.611 1470.1 541.611 1470.1 428.71ZM1249 428.71 1249 541.611 1358.25 541.611 1358.25 428.71ZM1137.15 428.71 1137.15 541.611 1246.4 541.611 1246.4 428.71ZM1025.3 428.71 1025.3 541.611 1134.55 541.611 1134.55 428.71ZM913.454 428.71 913.454 541.611 1022.7 541.611 1022.7 428.71ZM801.606 428.71 801.606 541.611 910.855 541.611 910.855 428.71ZM689.754 428.71 689.754 541.611 799.007 541.611 799.007 428.71ZM577.907 428.71 577.907 541.611 687.155 541.611 687.155 428.71ZM466.061 428.71 466.061 541.611 575.307 541.611 575.307 428.71ZM3821.51 313.213 3821.51 426.111 3930.76 426.111 3930.76 313.213ZM3709.66 313.213 3709.66 426.111 3818.92 426.111 3818.92 313.213ZM3597.82 313.213 3597.82 426.111 3707.06 426.111 3707.06 313.213ZM3485.97 313.213 3485.97 426.111 3595.22 426.111 3595.22 313.213ZM3374.12 313.213 3374.12 426.111 3483.37 426.111 3483.37 313.213ZM3262.27 313.213 3262.27 426.111 3371.52 426.111 3371.52 313.213ZM3150.42 313.213 3150.42 426.111 3259.67 426.111 3259.67 313.213ZM3038.57 313.213 3038.57 426.111 3147.82 426.111 3147.82 313.213ZM2926.73 313.213 2926.73 426.111 3035.98 426.111 3035.98 313.213ZM2814.88 313.213 2814.88 426.111 2924.13 426.111 2924.13 313.213ZM2703.03 313.213 2703.03 426.111 2812.28 426.111 2812.28 313.213ZM2591.18 313.213 2591.18 426.111 2700.43 426.111 2700.43 313.213ZM2479.33 313.213 2479.33 426.111 2588.58 426.111 2588.58 313.213ZM2367.48 313.213 2367.48 426.111 2476.73 426.111 2476.73 313.213ZM2255.64 313.213 2255.64 426.111 2364.88 426.111 2364.88 313.213ZM2143.79 313.213 2143.79 426.111 2253.04 426.111 2253.04 313.213ZM2031.94 313.213 2031.94 426.111 2141.19 426.111 2141.19 313.213ZM1920.09 313.213 1920.09 426.111 2029.34 426.111 2029.34 313.213ZM1808.24 313.213 1808.24 426.111 1917.49 426.111 1917.49 313.213ZM1696.39 313.213 1696.39 426.111 1805.64 426.111 1805.64 313.213ZM1584.54 313.213 1584.54 426.111 1693.79 426.111 1693.79 313.213ZM1472.7 313.213 1472.7 426.111 1581.94 426.111 1581.94 313.213ZM1360.85 313.213 1360.85 426.111 1470.1 426.111 1470.1 313.213ZM1249 313.213 1249 426.111 1358.25 426.111 1358.25 313.213ZM1137.15 313.213 1137.15 426.111 1246.4 426.111 1246.4 313.213ZM1025.3 313.213 1025.3 426.111 1134.55 426.111 1134.55 313.213ZM913.454 313.213 913.454 426.111 1022.7 426.111 1022.7 313.213ZM801.606 313.213 801.606 426.111 910.855 426.111 910.855 313.213ZM689.754 313.213 689.754 426.111 799.007 426.111 799.007 313.213ZM577.907 313.213 577.907 426.111 687.155 426.111 687.155 313.213ZM466.061 313.213 466.061 426.111 575.307 426.111 575.307 313.213ZM3821.51 197.712 3821.51 310.613 3930.76 310.613 3930.76 197.712ZM3709.66 197.712 3709.66 310.613 3818.92 310.613 3818.92 197.712ZM3597.82 197.712 3597.82 310.613 3707.06 310.613 3707.06 197.712ZM3485.97 197.712 3485.97 310.613 3595.22 310.613 3595.22 197.712ZM3374.12 197.712 3374.12 310.613 3483.37 310.613 3483.37 197.712ZM3262.27 197.712 3262.27 310.613 3371.52 310.613 3371.52 197.712ZM3150.42 197.712 3150.42 310.613 3259.67 310.613 3259.67 197.712ZM3038.57 197.712 3038.57 310.613 3147.82 310.613 3147.82 197.712ZM2926.73 197.712 2926.73 310.613 3035.98 310.613 3035.98 197.712ZM2814.88 197.712 2814.88 310.613 2924.13 310.613 2924.13 197.712ZM2703.03 197.712 2703.03 310.613 2812.28 310.613 2812.28 197.712ZM2591.18 197.712 2591.18 310.613 2700.43 310.613 2700.43 197.712ZM2479.33 197.712 2479.33 310.613 2588.58 310.613 2588.58 197.712ZM2367.48 197.712 2367.48 310.613 2476.73 310.613 2476.73 197.712ZM2255.64 197.712 2255.64 310.613 2364.88 310.613 2364.88 197.712ZM2143.79 197.712 2143.79 310.613 2253.04 310.613 2253.04 197.712ZM2031.94 197.712 2031.94 310.613 2141.19 310.613 2141.19 197.712ZM1920.09 197.712 1920.09 310.613 2029.34 310.613 2029.34 197.712ZM1808.24 197.712 1808.24 310.613 1917.49 310.613 1917.49 197.712ZM1696.39 197.712 1696.39 310.613 1805.64 310.613 1805.64 197.712ZM1584.54 197.712 1584.54 310.613 1693.79 310.613 1693.79 197.712ZM1472.7 197.712 1472.7 310.613 1581.94 310.613 1581.94 197.712ZM1360.85 197.712 1360.85 310.613 1470.1 310.613 1470.1 197.712ZM1249 197.712 1249 310.613 1358.25 310.613 1358.25 197.712ZM1137.15 197.712 1137.15 310.613 1246.4 310.613 1246.4 197.712ZM1025.3 197.712 1025.3 310.613 1134.55 310.613 1134.55 197.712ZM913.454 197.712 913.454 310.613 1022.7 310.613 1022.7 197.712ZM801.606 197.712 801.606 310.613 910.855 310.613 910.855 197.712ZM689.754 197.712 689.754 310.613 799.007 310.613 799.007 197.712ZM577.907 197.712 577.907 310.613 687.155 310.613 687.155 197.712ZM466.061 197.712 466.061 310.613 575.307 310.613 575.307 197.712ZM575.307 82.0002 577.907 82.0002 577.907 195.113 687.155 195.113 687.155 82.0002 689.754 82.0002 689.754 195.113 799.007 195.113 799.007 82.0002 801.606 82.0002 801.606 195.113 910.855 195.113 910.855 82.0002 913.454 82.0002 913.454 195.113 1022.7 195.113 1022.7 82.0002 1025.3 82.0002 1025.3 195.113 1134.55 195.113 1134.55 82.0005 1137.15 82.0005 1137.15 195.113 1246.4 195.113 1246.4 82.0005 1249 82.0005 1249 195.113 1358.25 195.113 1358.25 82.0005 1360.85 82.0005 1360.85 195.113 1470.1 195.113 1470.1 82.0005 1472.7 82.0005 1472.7 195.113 1581.94 195.113 1581.94 82.0005 1584.54 82.0005 1584.54 195.113 1693.79 195.113 1693.79 82.0005 1696.39 82.0005 1696.39 195.113 1805.64 195.113 1805.64 82.0005 1808.24 82.0005 1808.24 195.113 1917.49 195.113 1917.49 82.0005 1920.09 82.0005 1920.09 195.113 2029.34 195.113 2029.34 82.0005 2031.94 82.0005 2031.94 195.113 2141.19 195.113 2141.19 82.0005 2143.79 82.0005 2143.79 195.113 2253.04 195.113 2253.04 82.0009 2255.64 82.0009 2255.64 195.113 2364.88 195.113 2364.88 82.0009 2367.48 82.0009 2367.48 195.113 2476.73 195.113 2476.73 82.0009 2479.33 82.0009 2479.33 195.113 2588.58 195.113 2588.58 82.0009 2591.18 82.0009 2591.18 195.113 2700.43 195.113 2700.43 82.0009 2703.03 82.0009 2703.03 195.113 2812.28 195.113 2812.28 82.0009 2814.88 82.0009 2814.88 195.113 2924.13 195.113 2924.13 82.0009 2926.73 82.0009 2926.73 195.113 3035.98 195.113 3035.98 82.0009 3038.57 82.0009 3038.57 195.113 3147.82 195.113 3147.82 82.0009 3150.42 82.0009 3150.42 195.113 3259.67 195.113 3259.67 82.0009 3262.27 82.0009 3262.27 195.113 3371.52 195.113 3371.52 82.0009 3374.12 82.0009 3374.12 195.113 3483.37 195.113 3483.37 82.0013 3485.97 82.0013 3485.97 195.113 3595.22 195.113 3595.22 82.0013 3597.82 82.0013 3597.82 195.113 3707.06 195.113 3707.06 82.0013 3709.66 82.0013 3709.66 195.113 3818.92 195.113 3818.92 82.0013 3821.51 82.0013 3821.51 195.113 3930.76 195.113 3930.76 82.0013 3933.36 82.0013 3933.36 195.113 4045 195.113 4045 197.712 3933.36 197.712 3933.36 310.613 4045 310.613 4045 313.213 3933.36 313.213 3933.36 426.111 4045 426.111 4045 428.71 3933.36 428.71 3933.36 541.611 4045 541.611 4045 544.21 3933.36 544.21 3933.36 657.112 4045 657.112 4045 659.71 3933.36 659.71 3933.36 772.61 4045 772.61 4045 775.21 3933.36 775.21 3933.36 888.111 4045 888.111 4045 890.71 3933.36 890.71 3933.36 1003.61 4045 1003.61 4045 1006.21 3933.36 1006.21 3933.36 1119.11 4045 1119.11 4045 1121.71 3933.36 1121.71 3933.36 1234.61 4045 1234.61 4045 1237.21 3933.36 1237.21 3933.36 1350.11 4045 1350.11 4045 1352.71 3933.36 1352.71 3933.36 1465.61 4045 1465.61 4045 1468.21 3933.36 1468.21 3933.36 1581.11 4045 1581.11 4045 1583.71 3933.36 1583.71 3933.36 1696.61 4045 1696.61 4045 1699.21 3933.36 1699.21 3933.36 1812.11 4045 1812.11 4045 1814.71 3933.36 1814.71 3933.36 1927.61 4045 1927.61 4045 1930.21 3933.36 1930.21 3933.36 2043.11 4045 2043.11 4045 2045.71 3933.36 2045.71 3933.36 2158.61 4045 2158.61 4045 2161.21 3933.36 2161.21 3933.36 2274.11 4045 2274.11 4045 2276.71 3933.36 2276.71 3933.36 2392 3930.76 2392 3930.76 2276.71 3821.51 2276.71 3821.51 2392 3818.92 2392 3818.92 2276.71 3709.66 2276.71 3709.66 2392 3707.06 2392 3707.06 2276.71 3597.82 2276.71 3597.82 2392 3595.22 2392 3595.22 2276.71 3485.97 2276.71 3485.97 2392 3483.37 2392 3483.37 2276.71 3374.12 2276.71 3374.12 2392 3371.52 2392 3371.52 2276.71 3262.27 2276.71 3262.27 2392 3259.67 2392 3259.67 2276.71 3150.42 2276.71 3150.42 2392 3147.82 2392 3147.82 2276.71 3038.57 2276.71 3038.57 2392 3035.98 2392 3035.98 2276.71 2926.73 2276.71 2926.73 2392 2924.13 2392 2924.13 2276.71 2814.88 2276.71 2814.88 2392 2812.28 2392 2812.28 2276.71 2703.03 2276.71 2703.03 2392 2700.43 2392 2700.43 2276.71 2591.18 2276.71 2591.18 2392 2588.58 2392 2588.58 2276.71 2479.33 2276.71 2479.33 2392 2476.73 2392 2476.73 2276.71 2367.48 2276.71 2367.48 2392 2364.88 2392 2364.88 2276.71 2255.64 2276.71 2255.64 2392 2253.04 2392 2253.04 2276.71 2143.79 2276.71 2143.79 2392 2141.19 2392 2141.19 2276.71 2031.94 2276.71 2031.94 2392 2029.34 2392 2029.34 2276.71 1920.09 2276.71 1920.09 2392 1917.49 2392 1917.49 2276.71 1808.24 2276.71 1808.24 2392 1805.64 2392 1805.64 2276.71 1696.39 2276.71 1696.39 2392 1693.79 2392 1693.79 2276.71 1584.54 2276.71 1584.54 2392 1581.94 2392 1581.94 2276.71 1472.7 2276.71 1472.7 2392 1470.1 2392 1470.1 2276.71 1360.85 2276.71 1360.85 2392 1358.25 2392 1358.25 2276.71 1249 2276.71 1249 2392 1246.4 2392 1246.4 2276.71 1137.15 2276.71 1137.15 2392 1134.55 2392 1134.55 2276.71 1025.3 2276.71 1025.3 2392 1022.7 2392 1022.7 2276.71 913.454 2276.71 913.454 2392 910.855 2392 910.855 2276.71 801.606 2276.71 801.606 2392 799.007 2392 799.007 2276.71 689.754 2276.71 689.754 2392 687.155 2392 687.155 2276.71 577.907 2276.71 577.907 2392 575.307 2392 575.307 2276.71 466.061 2276.71 466.061 2392 463.462 2392 463.462 2276.71 354.001 2276.71 354.001 2274.11 463.462 2274.11 463.462 2161.21 354.001 2161.21 354.001 2158.61 463.462 2158.61 463.462 2045.71 354.001 2045.71 354.001 2043.11 463.462 2043.11 463.462 1930.21 354.001 1930.21 354.001 1927.61 463.462 1927.61 463.462 1814.71 354.001 1814.71 354.001 1812.11 463.462 1812.11 463.462 1699.21 354.001 1699.21 354.001 1696.61 463.462 1696.61 463.462 1583.71 354.001 1583.71 354.001 1581.11 463.462 1581.11 463.462 1468.21 354.001 1468.21 354.001 1465.61 463.462 1465.61 463.462 1352.71 354.001 1352.71 354.001 1350.11 463.462 1350.11 463.462 1237.21 354.001 1237.21 354.001 1234.61 463.462 1234.61 463.462 1121.71 354.001 1121.71 354.001 1119.11 463.462 1119.11 463.462 1006.21 354.001 1006.21 354.001 1003.61 463.462 1003.61 463.462 890.71 354 890.71 354 888.111 463.462 888.111 463.462 775.21 354 775.21 354 772.61 463.462 772.61 463.462 659.71 354 659.71 354 657.112 463.462 657.112 463.462 544.21 354 544.21 354 541.611 463.462 541.611 463.462 428.71 354 428.71 354 426.111 463.462 426.111 463.462 313.213 354 313.213 354 310.613 463.462 310.613 463.462 197.712 354 197.712 354 195.113 463.462 195.113 463.462 82.002 466.061 82.002 466.061 195.113 575.307 195.113Z" fill="url(#fill1)" fill-rule="evenodd"/></g></svg>