<svg width="3906" height="881" xmlns="http://www.w3.org/2000/svg" xmlns:xlink="http://www.w3.org/1999/xlink" xml:space="preserve" overflow="hidden"><defs><clipPath id="clip0"><rect x="277" y="813" width="3906" height="881"/></clipPath><linearGradient x1="3425.97" y1="734.325" x2="4034.42" y2="1589.8" gradientUnits="userSpaceOnUse" spreadMethod="reflect" id="fill1"><stop offset="0" stop-color="#0070C0"/><stop offset="0.015873" stop-color="#0071C1"/><stop offset="0.031746" stop-color="#0073C2"/><stop offset="0.047619" stop-color="#0075C4"/><stop offset="0.0634921" stop-color="#0077C5"/><stop offset="0.0793651" stop-color="#0079C6"/><stop offset="0.0952381" stop-color="#007AC8"/><stop offset="0.111111" stop-color="#007CC9"/><stop offset="0.126984" stop-color="#007ECA"/><stop offset="0.142857" stop-color="#0080CC"/><stop offset="0.15873" stop-color="#0081CD"/><stop offset="0.174603" stop-color="#0083CE"/><stop offset="0.190476" stop-color="#0084CF"/><stop offset="0.206349" stop-color="#0086D0"/><stop offset="0.222222" stop-color="#0088D2"/><stop offset="0.238095" stop-color="#0089D3"/><stop offset="0.253968" stop-color="#008BD4"/><stop offset="0.269841" stop-color="#008CD5"/><stop offset="0.285714" stop-color="#008DD6"/><stop offset="0.301587" stop-color="#008FD7"/><stop offset="0.31746" stop-color="#0090D8"/><stop offset="0.333333" stop-color="#0092D9"/><stop offset="0.349206" stop-color="#0093DA"/><stop offset="0.365079" stop-color="#0094DB"/><stop offset="0.380952" stop-color="#0095DC"/><stop offset="0.396825" stop-color="#0097DD"/><stop offset="0.412698" stop-color="#0098DE"/><stop offset="0.428571" stop-color="#0099DF"/><stop offset="0.444444" stop-color="#009AE0"/><stop offset="0.460317" stop-color="#009BE0"/><stop offset="0.47619" stop-color="#009CE1"/><stop offset="0.492063" stop-color="#009EE2"/><stop offset="0.507937" stop-color="#009FE3"/><stop offset="0.52381" stop-color="#00A0E4"/><stop offset="0.539683" stop-color="#00A1E4"/><stop offset="0.555556" stop-color="#00A2E5"/><stop offset="0.571429" stop-color="#00A2E6"/><stop offset="0.587302" stop-color="#00A3E6"/><stop offset="0.603175" stop-color="#00A4E7"/><stop offset="0.619048" stop-color="#00A5E8"/><stop offset="0.634921" stop-color="#00A6E8"/><stop offset="0.650794" stop-color="#00A7E9"/><stop offset="0.666667" stop-color="#00A7E9"/><stop offset="0.68254" stop-color="#00A8EA"/><stop offset="0.698413" stop-color="#00A9EA"/><stop offset="0.714286" stop-color="#00A9EB"/><stop offset="0.730159" stop-color="#00AAEB"/><stop offset="0.746032" stop-color="#00ABEC"/><stop offset="0.761905" stop-color="#00ABEC"/><stop offset="0.777778" stop-color="#00ACED"/><stop offset="0.793651" stop-color="#00ACED"/><stop offset="0.809524" stop-color="#00ADED"/><stop offset="0.825397" stop-color="#00ADEE"/><stop offset="0.84127" stop-color="#00ADEE"/><stop offset="0.857143" stop-color="#00AEEE"/><stop offset="0.873016" stop-color="#00AEEE"/><stop offset="0.888889" stop-color="#00AEEF"/><stop offset="0.904762" stop-color="#00AFEF"/><stop offset="0.920635" stop-color="#00AFEF"/><stop offset="0.936508" stop-color="#00AFEF"/><stop offset="0.952381" stop-color="#00AFEF"/><stop offset="0.968254" stop-color="#00AFEF"/><stop offset="0.984127" stop-color="#00AFEF"/><stop offset="1" stop-color="#00B0F0"/></linearGradient><linearGradient x1="3425.97" y1="734.325" x2="4034.42" y2="1589.8" gradientUnits="userSpaceOnUse" spreadMethod="reflect" id="fill2"><stop offset="0" stop-color="#0070C0"/><stop offset="0.015873" stop-color="#0071C1"/><stop offset="0.031746" stop-color="#0073C2"/><stop offset="0.047619" stop-color="#0075C4"/><stop offset="0.0634921" stop-color="#0077C5"/><stop offset="0.0793651" stop-color="#0079C6"/><stop offset="0.0952381" stop-color="#007AC8"/><stop offset="0.111111" stop-color="#007CC9"/><stop offset="0.126984" stop-color="#007ECA"/><stop offset="0.142857" stop-color="#0080CC"/><stop offset="0.15873" stop-color="#0081CD"/><stop offset="0.174603" stop-color="#0083CE"/><stop offset="0.190476" stop-color="#0084CF"/><stop offset="0.206349" stop-color="#0086D0"/><stop offset="0.222222" stop-color="#0088D2"/><stop offset="0.238095" stop-color="#0089D3"/><stop offset="0.253968" stop-color="#008BD4"/><stop offset="0.269841" stop-color="#008CD5"/><stop offset="0.285714" stop-color="#008DD6"/><stop offset="0.301587" stop-color="#008FD7"/><stop offset="0.31746" stop-color="#0090D8"/><stop offset="0.333333" stop-color="#0092D9"/><stop offset="0.349206" stop-color="#0093DA"/><stop offset="0.365079" stop-color="#0094DB"/><stop offset="0.380952" stop-color="#0095DC"/><stop offset="0.396825" stop-color="#0097DD"/><stop offset="0.412698" stop-color="#0098DE"/><stop offset="0.428571" stop-color="#0099DF"/><stop offset="0.444444" stop-color="#009AE0"/><stop offset="0.460317" stop-color="#009BE0"/><stop offset="0.47619" stop-color="#009CE1"/><stop offset="0.492063" stop-color="#009EE2"/><stop offset="0.507937" stop-color="#009FE3"/><stop offset="0.52381" stop-color="#00A0E4"/><stop offset="0.539683" stop-color="#00A1E4"/><stop offset="0.555556" stop-color="#00A2E5"/><stop offset="0.571429" stop-color="#00A2E6"/><stop offset="0.587302" stop-color="#00A3E6"/><stop offset="0.603175" stop-color="#00A4E7"/><stop offset="0.619048" stop-color="#00A5E8"/><stop offset="0.634921" stop-color="#00A6E8"/><stop offset="0.650794" stop-color="#00A7E9"/><stop offset="0.666667" stop-color="#00A7E9"/><stop offset="0.68254" stop-color="#00A8EA"/><stop offset="0.698413" stop-color="#00A9EA"/><stop offset="0.714286" stop-color="#00A9EB"/><stop offset="0.730159" stop-color="#00AAEB"/><stop offset="0.746032" stop-color="#00ABEC"/><stop offset="0.761905" stop-color="#00ABEC"/><stop offset="0.777778" stop-color="#00ACED"/><stop offset="0.793651" stop-color="#00ACED"/><stop offset="0.809524" stop-color="#00ADED"/><stop offset="0.825397" stop-color="#00ADEE"/><stop offset="0.84127" stop-color="#00ADEE"/><stop offset="0.857143" stop-color="#00AEEE"/><stop offset="0.873016" stop-color="#00AEEE"/><stop offset="0.888889" stop-color="#00AEEF"/><stop offset="0.904762" stop-color="#00AFEF"/><stop offset="0.920635" stop-color="#00AFEF"/><stop offset="0.936508" stop-color="#00AFEF"/><stop offset="0.952381" stop-color="#00AFEF"/><stop offset="0.968254" stop-color="#00AFEF"/><stop offset="0.984127" stop-color="#00AFEF"/><stop offset="1" stop-color="#00B0F0"/></linearGradient></defs><g clip-path="url(#clip0)" transform="translate(-277 -813)"><path d="M2524.44 832.002C2537.62 840.988 2547.32 851.538 2554.54 865.977 2554.85 871.916 2554.95 877.867 2554.93 883.813 2554.93 887.532 2554.93 891.252 2554.93 895.083 2554.91 899.112 2554.9 903.14 2554.88 907.291 2554.87 911.405 2554.87 915.519 2554.86 919.758 2554.84 932.939 2554.8 946.121 2554.76 959.302 2554.74 968.221 2554.72 977.141 2554.71 986.061 2554.67 1007.96 2554.61 1029.86 2554.54 1051.77 2557.09 1050.12 2559.65 1048.47 2562.28 1046.78 2567.33 1043.53 2567.33 1043.53 2572.5 1040.22 2575.83 1038.08 2579.16 1035.94 2582.6 1033.73 2627.97 1005.71 2678.03 1001.68 2729.84 1011.34 2762.01 1019.26 2787.97 1033.21 2812.57 1055.21 2814.73 1057.08 2816.89 1058.96 2819.11 1060.89 2854.82 1094.03 2872.31 1141.79 2877.94 1189.39 2878.28 1198.91 2878.48 1208.34 2878.5 1217.86 2878.51 1220.6 2878.53 1223.33 2878.55 1226.16 2878.6 1235.13 2878.62 1244.11 2878.64 1253.09 2878.66 1259.36 2878.68 1265.62 2878.7 1271.89 2878.74 1284.99 2878.76 1298.08 2878.77 1311.18 2878.79 1327.97 2878.87 1344.76 2878.97 1361.56 2879.03 1374.48 2879.05 1387.4 2879.06 1400.33 2879.07 1406.52 2879.09 1412.72 2879.14 1418.91 2879.2 1427.55 2879.19 1436.19 2879.17 1444.83 2879.2 1447.39 2879.23 1449.95 2879.27 1452.59 2879.13 1469.78 2879.13 1469.78 2873.34 1478.26 2859.71 1486.79 2840.35 1483.47 2824.78 1483.37 2817.76 1483.34 2810.74 1483.44 2803.72 1483.55 2799.3 1483.55 2794.88 1483.54 2790.32 1483.54 2784.23 1483.55 2784.23 1483.55 2778.02 1483.56 2767.85 1481.84 2767.85 1481.84 2762.13 1476.53 2755.77 1464.85 2756.15 1454.11 2756.31 1441.16 2756.31 1438.46 2756.3 1435.76 2756.29 1432.98 2756.28 1427.13 2756.29 1421.27 2756.32 1415.42 2756.37 1406.13 2756.35 1396.84 2756.31 1387.55 2756.2 1361.14 2756.22 1334.73 2756.29 1308.32 2756.33 1292.16 2756.28 1275.99 2756.19 1259.82 2756.17 1253.69 2756.18 1247.55 2756.23 1241.41 2756.53 1202.08 2755.01 1172.93 2728.5 1141.65 2702.81 1120.35 2679.17 1111.88 2646.02 1112.59 2623.8 1115.34 2600.97 1124.9 2585.51 1141.22 2557.77 1179.03 2556.97 1217.14 2556.83 1262.52 2556.8 1271.26 2556.73 1279.99 2556.65 1288.72 2556.45 1310.38 2556.33 1332.03 2556.21 1353.68 2556.1 1372.06 2555.97 1390.45 2555.79 1408.83 2555.72 1417.44 2555.7 1426.05 2555.67 1434.67 2555.62 1439.91 2555.58 1445.15 2555.53 1450.4 2555.53 1452.8 2555.54 1455.2 2555.54 1457.67 2555.32 1474.17 2555.32 1474.17 2547.66 1481.84 2533.49 1483.2 2519.31 1482.97 2505.08 1482.92 2498.03 1482.91 2490.98 1482.99 2483.93 1483.08 2479.49 1483.08 2475.05 1483.08 2470.48 1483.08 2466.4 1483.1 2462.31 1483.11 2458.11 1483.12 2447.89 1481.84 2447.89 1481.84 2442.17 1478.09 2435.17 1468.1 2436.24 1459.7 2436.21 1447.6 2436.19 1445.15 2436.17 1442.7 2436.15 1440.18 2436.09 1431.96 2436.11 1423.73 2436.12 1415.51 2436.1 1409.62 2436.07 1403.73 2436.03 1397.84 2435.96 1381.83 2435.95 1365.81 2435.95 1349.79 2435.95 1336.42 2435.92 1323.05 2435.9 1309.68 2435.83 1278.12 2435.82 1246.56 2435.84 1215 2435.87 1182.47 2435.79 1149.93 2435.66 1117.39 2435.55 1089.45 2435.51 1061.51 2435.53 1033.57 2435.53 1016.89 2435.52 1000.2 2435.43 983.518 2435.36 967.814 2435.36 952.111 2435.43 936.406 2435.44 930.653 2435.43 924.9 2435.38 919.147 2434.96 866.788 2434.96 866.788 2449.82 846.707 2470.85 826.253 2497.29 822.603 2524.44 832.002Z" fill="#FFFFFF" fill-rule="evenodd"/><path d="M1024 1043.39C1028.87 1047.47 1033.67 1051.62 1038.41 1055.85 1040.57 1057.72 1042.72 1059.59 1044.94 1061.52 1080.66 1094.62 1098.15 1142.3 1103.79 1189.83 1104.12 1199.34 1104.33 1208.76 1104.34 1218.26 1104.36 1221 1104.37 1223.73 1104.39 1226.55 1104.44 1235.52 1104.47 1244.48 1104.48 1253.45 1104.5 1259.7 1104.52 1265.96 1104.54 1272.22 1104.58 1285.29 1104.6 1298.37 1104.61 1311.45 1104.63 1328.22 1104.71 1344.99 1104.81 1361.76 1104.88 1374.66 1104.89 1387.56 1104.9 1400.47 1104.91 1406.65 1104.94 1412.84 1104.98 1419.03 1105.04 1427.65 1105.03 1436.28 1105.01 1444.9 1105.04 1447.46 1105.07 1450.02 1105.11 1452.66 1104.97 1469.82 1104.97 1469.82 1099.18 1478.29 1085.55 1486.81 1066.19 1483.49 1050.62 1483.39 1043.59 1483.36 1036.58 1483.46 1029.55 1483.57 1025.13 1483.57 1020.71 1483.57 1016.15 1483.56 1010.06 1483.57 1010.06 1483.57 1003.85 1483.58 993.68 1481.86 993.68 1481.86 987.959 1476.56 981.605 1464.9 981.979 1454.18 982.142 1441.24 982.135 1438.55 982.128 1435.85 982.12 1433.08 982.109 1427.23 982.122 1421.39 982.154 1415.54 982.202 1406.27 982.18 1396.99 982.138 1387.72 982.032 1361.34 982.048 1334.97 982.117 1308.6 982.155 1292.46 982.109 1276.31 982.015 1260.17 981.996 1254.04 982.01 1247.91 982.057 1241.79 982.359 1202.51 980.842 1173.4 954.326 1142.17 928.638 1120.9 904.992 1112.44 871.84 1113.15 849.617 1115.9 826.783 1125.44 811.317 1141.74 783.584 1179.49 782.781 1217.54 782.636 1262.86 782.608 1271.58 782.537 1280.31 782.455 1289.03 782.263 1310.65 782.14 1332.27 782.017 1353.89 781.909 1372.25 781.774 1390.6 781.603 1408.96 781.534 1417.56 781.505 1426.16 781.478 1434.76 781.433 1440 781.387 1445.23 781.338 1450.47 781.341 1452.87 781.345 1455.26 781.348 1457.73 781.134 1474.21 781.134 1474.21 773.469 1481.86 759.3 1483.23 745.113 1482.99 730.884 1482.94 723.83 1482.93 716.78 1483.01 709.726 1483.1 705.289 1483.1 700.851 1483.11 696.279 1483.11 692.196 1483.12 688.114 1483.13 683.908 1483.14 673.685 1481.86 673.685 1481.86 667.97 1477.69 661.89 1469.59 662.048 1464.66 662.006 1454.59 661.967 1451.09 661.928 1447.58 661.887 1443.98 661.897 1440.14 661.907 1436.3 661.918 1432.34 661.889 1428.3 661.86 1424.25 661.83 1420.08 661.763 1408.98 661.743 1397.88 661.75 1386.78 661.75 1377.5 661.721 1368.22 661.692 1358.94 661.626 1337.03 661.616 1315.12 661.639 1293.21 661.662 1270.65 661.583 1248.09 661.456 1225.52 661.35 1206.13 661.311 1186.74 661.324 1167.34 661.331 1155.77 661.313 1144.2 661.228 1132.63 661.152 1119.7 661.185 1106.77 661.246 1093.84 661.2 1090.04 661.155 1086.24 661.108 1082.32 661.358 1059.25 664.601 1042.33 680.567 1024.93 698.714 1011.6 716.827 1007.84 739.061 1011.18 757.299 1017.49 765.518 1027.25 776.909 1042.1 779.18 1044.37 781.451 1046.64 783.791 1048.98 786.204 1047.36 788.617 1045.74 791.102 1044.08 809.903 1031.76 827.48 1020.81 849.166 1014.62 852.632 1013.57 852.632 1013.57 856.169 1012.5 911.844 997.769 977.916 1008.69 1024 1043.39Z" fill="#FFFFFF" fill-rule="evenodd"/><path d="M1210.02 1013.75C1212.97 1013.72 1215.92 1013.69 1218.96 1013.66 1222.21 1013.65 1225.45 1013.63 1228.8 1013.62 1232.21 1013.59 1235.62 1013.56 1239.14 1013.53 1250.48 1013.45 1261.81 1013.39 1273.14 1013.34 1277.01 1013.32 1280.88 1013.31 1284.87 1013.29 1305.36 1013.19 1325.84 1013.13 1346.33 1013.08 1367.48 1013.02 1388.62 1012.87 1409.77 1012.69 1426.04 1012.58 1442.31 1012.54 1458.57 1012.52 1466.37 1012.5 1474.16 1012.44 1481.95 1012.36 1492.88 1012.25 1503.81 1012.25 1514.73 1012.28 1517.94 1012.22 1521.14 1012.16 1524.44 1012.11 1545.77 1012.31 1561.83 1016.7 1577.8 1031.45 1585.96 1044.9 1587.83 1057.32 1584.68 1072.67 1572.03 1102.42 1551.18 1125.8 1530 1149.72 1519.75 1161.34 1510.11 1173.34 1500.61 1185.57 1486.99 1203.07 1473.15 1220.36 1459.11 1237.52 1445.24 1254.48 1431.52 1271.54 1418.04 1288.82 1401.28 1310.29 1383.98 1331.31 1366.54 1352.24 1364.59 1354.59 1362.63 1356.95 1360.62 1359.37 1358.88 1361.46 1357.14 1363.54 1355.34 1365.69 1351.24 1370.84 1347.52 1376.29 1343.86 1381.76 1347.61 1381.73 1347.61 1381.73 1351.43 1381.69 1375.01 1381.49 1398.6 1381.33 1422.19 1381.23 1434.31 1381.17 1446.43 1381.1 1458.56 1380.98 1472.51 1380.85 1486.47 1380.8 1500.42 1380.76 1504.75 1380.7 1509.09 1380.65 1513.55 1380.59 1519.65 1380.59 1519.65 1380.59 1525.86 1380.59 1529.42 1380.57 1532.98 1380.55 1536.65 1380.52 1553.12 1382.53 1564.24 1388.57 1575.44 1400.65 1585.18 1415.06 1585.84 1426.48 1584.68 1443.58 1578.68 1459.66 1571.37 1468.35 1557.16 1477.92 1547.73 1481.06 1542.13 1481.81 1532.41 1481.86 1528.01 1481.9 1528.01 1481.9 1523.51 1481.94 1520.3 1481.95 1517.09 1481.96 1513.78 1481.97 1510.39 1481.99 1507 1482.01 1503.51 1482.04 1492.27 1482.1 1481.03 1482.14 1469.79 1482.18 1464.04 1482.2 1464.04 1482.2 1458.17 1482.22 1437.87 1482.29 1417.57 1482.34 1397.27 1482.37 1376.29 1482.41 1355.32 1482.53 1334.35 1482.67 1318.22 1482.76 1302.1 1482.78 1285.98 1482.8 1278.24 1482.81 1270.51 1482.85 1262.78 1482.92 1251.96 1483 1241.14 1483 1230.32 1482.97 1225.53 1483.04 1225.53 1483.04 1220.65 1483.11 1201.49 1482.95 1190.46 1480.43 1175.28 1467.62 1164.72 1455.32 1162.7 1443.72 1163.38 1427.92 1169.03 1398.01 1194.05 1374.54 1213.41 1352.26 1223.3 1340.84 1232.67 1329.07 1241.94 1317.15 1255.63 1299.59 1269.55 1282.23 1283.65 1264.99 1297.53 1248.03 1311.24 1230.96 1324.72 1213.69 1341.4 1192.33 1358.59 1171.41 1375.92 1150.57 1377.86 1148.23 1379.81 1145.89 1381.81 1143.47 1383.53 1141.41 1385.26 1139.34 1387.03 1137.21 1392.31 1130.7 1397.33 1124.02 1402.35 1117.31 1398.55 1117.32 1398.55 1117.32 1394.67 1117.32 1370.73 1117.33 1346.79 1117.24 1322.85 1117.04 1310.55 1116.94 1298.24 1116.88 1285.93 1116.9 1274.04 1116.92 1262.16 1116.85 1250.27 1116.7 1243.55 1116.64 1236.84 1116.69 1230.13 1116.74 1207.38 1116.37 1192.43 1115.4 1176.11 1098.69 1164.27 1083.66 1162.92 1073.75 1163.15 1055.05 1166.21 1038.44 1176.42 1028.38 1189.05 1017.72 1196.89 1013.8 1201.3 1013.82 1210.02 1013.75Z" fill="#FFFFFF" fill-rule="evenodd"/><path d="M369.561 840.355C374.79 840.355 380.019 840.35 385.248 840.34 396.174 840.335 407.099 840.378 418.025 840.457 431.993 840.555 445.96 840.545 459.929 840.501 470.715 840.477 481.5 840.504 492.286 840.547 497.436 840.562 502.585 840.564 507.735 840.55 514.942 840.54 522.146 840.597 529.352 840.672 533.444 840.691 537.535 840.709 541.75 840.728 556.637 842.483 568.299 847.362 579.315 857.662 592.33 874.71 597.049 885.757 594.272 907.42 587.22 927.483 578.473 932.878 559.93 945.26 536.132 945.26 512.333 945.26 487.812 945.26 487.812 1087.16 487.812 1229.05 487.812 1375.25 509.345 1375.25 530.877 1375.25 553.062 1375.25 583.599 1390.54 583.599 1390.54 590.838 1406.21 593.975 1423.22 594.939 1439.61 586.787 1455.27 576.884 1467.53 568.059 1473.44 553.062 1478.45 542.056 1479.41 542.056 1479.41 529.481 1479.56 527.179 1479.59 524.875 1479.62 522.503 1479.66 514.923 1479.76 507.345 1479.81 499.765 1479.84 497.163 1479.86 494.561 1479.88 491.88 1479.9 478.109 1480.01 464.339 1480.07 450.569 1480.1 436.399 1480.14 422.234 1480.3 408.066 1480.5 397.12 1480.63 386.176 1480.66 375.23 1480.67 370.009 1480.69 364.788 1480.75 359.569 1480.84 310.402 1481.63 310.402 1481.63 289.786 1463.02 277.685 1449.28 276.783 1435 277.254 1417.25 278.979 1405.03 283.997 1398.15 292.063 1389.01 312.668 1375.25 312.668 1375.25 384.787 1375.25 384.787 1233.35 384.787 1091.46 384.787 945.26 359.854 945.26 334.922 945.26 309.234 945.26 279.517 919.745 279.517 919.745 277.039 894.091 277.519 879.086 281.655 866.796 292.063 855.822 315.309 837.444 341.335 840.121 369.561 840.355Z" fill="#FFFFFF" fill-rule="evenodd"/><path d="M3100.2 889.245C3115.14 898.985 3126.38 911.282 3132.08 928.35 3132.37 934.947 3132.45 941.554 3132.42 948.158 3132.41 952.002 3132.4 955.847 3132.39 959.807 3132.34 965.827 3132.34 965.827 3132.3 971.967 3132.28 976.02 3132.27 980.073 3132.25 984.248 3132.21 994.264 3132.15 1004.28 3132.08 1014.3 3135.78 1014.06 3139.48 1013.82 3143.3 1013.57 3187.95 1011.54 3187.95 1011.54 3202.31 1023.75 3213.48 1035.54 3218.02 1045.79 3219.33 1061.99 3218.92 1075.78 3215.61 1085.14 3207.91 1096.8 3190.69 1112.69 3178.6 1114.42 3155.56 1114.21 3151.18 1114.18 3146.79 1114.14 3142.27 1114.11 3138.91 1114.07 3135.55 1114.03 3132.08 1113.99 3132.11 1118.45 3132.13 1122.9 3132.15 1127.5 3132.36 1169.43 3132.52 1211.37 3132.62 1253.31 3132.67 1274.87 3132.75 1296.43 3132.86 1317.99 3132.98 1338.79 3133.04 1359.58 3133.06 1380.38 3133.08 1388.33 3133.12 1396.27 3133.18 1404.22 3133.25 1415.32 3133.26 1426.43 3133.26 1437.53 3133.29 1440.84 3133.33 1444.14 3133.37 1447.55 3133.35 1452.08 3133.35 1452.08 3133.33 1456.71 3133.34 1459.34 3133.35 1461.96 3133.35 1464.67 3131.72 1473.47 3128.84 1476.5 3121.74 1481.84 3111.5 1483.12 3111.5 1483.12 3099.11 1483.09 3094.67 1483.08 3090.22 1483.08 3085.64 1483.08 3083.33 1483.05 3081.02 1483.02 3078.64 1482.99 3071.56 1482.91 3064.49 1482.92 3057.42 1482.94 3022.71 1482.75 3022.71 1482.75 3014.9 1474.96 3014.05 1468.48 3014.05 1468.48 3014.07 1460.43 3014.06 1457.38 3014.05 1454.34 3014.04 1451.2 3014.06 1447.85 3014.09 1444.5 3014.11 1441.04 3014.11 1437.52 3014.11 1434 3014.11 1430.37 3014.12 1418.69 3014.17 1407.01 3014.22 1395.33 3014.24 1387.24 3014.25 1379.16 3014.25 1371.08 3014.28 1349.77 3014.35 1328.46 3014.42 1307.16 3014.49 1285.43 3014.52 1263.7 3014.56 1241.97 3014.63 1199.31 3014.75 1156.65 3014.9 1113.99 3011.16 1114.15 3007.41 1114.31 3003.56 1114.48 2998.58 1114.6 2993.6 1114.73 2988.62 1114.85 2986.16 1114.97 2983.7 1115.08 2981.17 1115.2 2963.16 1115.53 2953.45 1111.93 2939.07 1100.24 2926.66 1086.62 2926.99 1072 2927.52 1054.38 2929.68 1038.04 2937.06 1028.82 2949.84 1018.96 2962.79 1012.87 2974.42 1013.16 2988.4 1013.65 2992.23 1013.72 2992.23 1013.72 2996.13 1013.79 3002.39 1013.91 3008.64 1014.1 3014.9 1014.3 3014.73 1010.29 3014.73 1010.29 3014.57 1006.21 3014.14 994.01 3013.87 981.81 3013.6 969.604 3013.43 965.407 3013.26 961.21 3013.08 956.886 3012.69 932.818 3013.92 917.399 3030.15 898.967 3049.79 880.885 3076.31 876.839 3100.2 889.245Z" fill="#FFFFFF" fill-rule="evenodd"/><path d="M2096.81 1114.71C2068.83 1116.94 2041.34 1128.13 2017.28 1146.07 1991.43 1169.36 1979.21 1201.52 1976.02 1235.36 1973.98 1279.31 1981.24 1317.1 2010.03 1351.76 2038.67 1380.36 2069.41 1389.74 2108.83 1390.77 2146.52 1389.87 2171.87 1377.38 2198.44 1350.63 2230.03 1313.5 2234.02 1272.27 2231.28 1225.48 2227.12 1188.89 2207 1160.5 2179.3 1137.2 2153.27 1119.24 2124.79 1112.49 2096.81 1114.71ZM2097.99 1007.25C2144.32 1009.47 2189.77 1026.6 2227.6 1058.96 2231 1061.23 2234.41 1063.5 2237.92 1065.83 2237.56 1062.93 2237.21 1060.02 2236.84 1057.03 2238.29 1041.1 2243.92 1032.42 2255.11 1021.19 2268.73 1010.83 2281.13 1006.28 2298.3 1007.45 2316.09 1010.6 2330.24 1016.31 2342.4 1029.99 2356.78 1050.66 2357.23 1068.79 2356.93 1093.44 2356.95 1097.5 2356.97 1101.57 2356.99 1105.77 2357.02 1116.87 2356.98 1127.96 2356.9 1139.07 2356.83 1150.75 2356.85 1162.44 2356.86 1174.13 2356.86 1193.79 2356.79 1213.44 2356.68 1233.1 2356.55 1255.68 2356.52 1278.26 2356.55 1300.84 2356.57 1322.7 2356.53 1344.56 2356.46 1366.42 2356.44 1375.65 2356.43 1384.88 2356.43 1394.12 2356.39 1483.38 2351.08 1561.77 2286.91 1629.93 2260.09 1655.78 2228.37 1669.47 2193.22 1680.58 2188.76 1682.13 2188.76 1682.13 2184.21 1683.71 2114.38 1704.98 2021.07 1691.67 1956.91 1658.57 1935.72 1646.63 1921.19 1634.52 1911.28 1611.9 1908.83 1596.19 1909.85 1584.02 1916.66 1569.61 1930.1 1554.81 1941.58 1547.96 1961.35 1544.5 1979.9 1545.4 1996.38 1554.42 2013.02 1561.99 2059.24 1582.72 2115.07 1590.26 2164.42 1575.83 2187.83 1566.44 2207.36 1552.96 2218.68 1529.95 2222.11 1520.7 2225.01 1511.52 2227.6 1502 2228.74 1498.6 2229.87 1495.2 2231.04 1491.69 2231.82 1482.88 2232.47 1474.12 2232.97 1465.29 2233.12 1462.88 2233.27 1460.47 2233.42 1457.99 2233.79 1452.05 2234.13 1446.11 2234.48 1440.18 2230.86 1442.91 2230.86 1442.91 2227.17 1445.7 2176.05 1483.72 2123.37 1501.29 2059.13 1495.13 2002.32 1485.48 1950.95 1458.64 1916.41 1411.68 1872.19 1347.9 1861.27 1272.38 1871.62 1196.22 1883.32 1134.91 1913.68 1083.09 1963.08 1045.01 2004.45 1017.73 2051.66 1005.03 2097.99 1007.25Z" fill="#FFFFFF" fill-rule="evenodd"/><path d="M1739.98 1010.55C1759.47 1019.49 1769.97 1031.96 1777.77 1051.83 1779.29 1065.4 1779.18 1078.89 1779.1 1092.53 1779.12 1096.62 1779.14 1100.7 1779.16 1104.9 1779.2 1116.04 1779.19 1127.19 1779.15 1138.33 1779.13 1150.01 1779.15 1161.68 1779.17 1173.36 1779.19 1192.95 1779.16 1212.54 1779.11 1232.13 1779.06 1254.79 1779.08 1277.44 1779.13 1300.09 1779.18 1319.56 1779.19 1339.02 1779.16 1358.48 1779.14 1370.1 1779.14 1381.72 1779.17 1393.34 1779.2 1406.28 1779.16 1419.22 1779.1 1432.16 1779.13 1437.94 1779.13 1437.94 1779.17 1443.84 1779.14 1447.35 1779.11 1450.87 1779.08 1454.49 1779.07 1457.55 1779.07 1460.61 1779.07 1463.76 1777.49 1473.19 1775.11 1476.26 1767.46 1481.85 1757.26 1483.13 1757.26 1483.13 1744.91 1483.1 1738.26 1483.09 1738.26 1483.09 1731.48 1483.09 1729.18 1483.06 1726.87 1483.03 1724.5 1483.01 1717.45 1482.92 1710.4 1482.93 1703.35 1482.96 1668.76 1482.77 1668.76 1482.77 1660.97 1474.97 1660.08 1467.52 1660.08 1467.52 1660.05 1458.09 1660.02 1454.52 1659.99 1450.95 1659.96 1447.27 1659.96 1443.34 1659.97 1439.41 1659.97 1435.36 1659.95 1431.23 1659.92 1427.1 1659.9 1422.85 1659.85 1411.5 1659.82 1400.16 1659.82 1388.81 1659.81 1379.34 1659.79 1369.87 1659.76 1360.4 1659.71 1338.04 1659.69 1315.68 1659.7 1293.33 1659.7 1270.28 1659.63 1247.23 1659.52 1224.19 1659.43 1204.4 1659.39 1184.61 1659.4 1164.81 1659.4 1153 1659.38 1141.18 1659.31 1129.36 1659.23 1116.17 1659.26 1102.97 1659.3 1089.78 1659.24 1083.93 1659.24 1083.93 1659.18 1077.95 1659.35 1056.67 1660.36 1043.86 1674.71 1027.75 1695.63 1009.29 1712.37 1006.91 1739.98 1010.55Z" fill="#FFFFFF" fill-rule="evenodd"/><path d="M3927.15 1147.91C3917.1 1149.16 3907.22 1151.8 3897.74 1156.08 3895.52 1157.29 3893.36 1158.46 3891.21 1159.63 3879.84 1165.69 3869.57 1172.22 3859.56 1180.27 3834.2 1205.33 3820.46 1234.8 3819.35 1270.14 3820.92 1307.39 3836.21 1336.82 3863.58 1362.87 3897.83 1390.7 3932.51 1393.23 3975.58 1390.1 4006.19 1384.89 4030.91 1362.81 4048.97 1339.15 4069.12 1308.87 4075.72 1276.67 4068.98 1241 4060.42 1211.44 4041.04 1184.55 4015 1167.37 3988.84 1152.9 3957.28 1144.16 3927.15 1147.91ZM4127.44 840.006C4154.23 839.638 4181.24 856.148 4182.17 890.644 4184.03 959.638 4182.17 1283.37 4182.17 1479.74L4070.62 1479.74 4070.62 1451.08 4062.18 1454.92C4006.68 1479.38 3949.79 1489.07 3889.35 1473.37L3881.63 1471.49C3824.18 1455.9 3775.07 1419.58 3745.74 1372.09 3743.18 1367.72 3740.65 1363.33 3738.15 1358.93L3734.62 1352.84C3711.53 1310.02 3709.94 1247.65 3723.99 1202.11 3749.5 1140.44 3799.74 1094.62 3864.63 1066.59 3914.98 1047.95 3975.42 1045.84 4026.12 1064.69 4042.33 1071 4058.35 1077.69 4074.11 1084.89L4074.11 890.644C4074.11 857.623 4100.66 840.375 4127.44 840.006Z" fill="url(#fill1)" fill-rule="evenodd"/><path d="M3338.38 841.498C3341.67 841.471 3344.95 841.443 3348.33 841.415 3359.23 841.333 3370.13 841.285 3381.03 841.243 3384.75 841.227 3388.48 841.21 3392.31 841.192 3412.02 841.106 3431.72 841.046 3451.43 841.008 3471.77 840.961 3492.1 840.819 3512.44 840.654 3528.09 840.545 3543.74 840.511 3559.39 840.496 3566.89 840.476 3574.38 840.427 3581.88 840.35 3592.39 840.249 3602.89 840.253 3613.4 840.282 3618.02 840.202 3618.02 840.202 3622.74 840.121 3644.23 840.335 3656.76 845.432 3674.45 858.834 3684.95 874.988 3688.06 889.425 3687.27 908.834 3684.13 927.976 3673.82 939.111 3660.19 950.74 3645.86 959.532 3637.8 960.463 3621.45 960.329 3617.69 960.333 3617.69 960.333 3613.86 960.337 3605.65 960.325 3597.44 960.196 3589.23 960.066 3583.51 960.035 3577.78 960.011 3572.06 959.995 3557.06 959.932 3542.06 959.769 3527.05 959.585 3509.02 959.384 3490.99 959.309 3472.95 959.212 3445.61 959.051 3418.27 958.733 3390.93 958.445 3390.93 1007.75 3390.93 1057.06 3390.93 1107.86 3408.13 1107.72 3425.33 1107.57 3443.05 1107.42 3456.79 1107.34 3470.53 1107.28 3484.26 1107.22 3498.75 1107.15 3513.24 1107.06 3527.73 1106.92 3541.69 1106.79 3555.65 1106.71 3569.61 1106.68 3574.94 1106.66 3580.26 1106.61 3585.58 1106.54 3593.04 1106.45 3600.51 1106.45 3607.97 1106.45 3612.22 1106.42 3616.46 1106.39 3620.84 1106.36 3637.11 1108.49 3647.14 1115.39 3658.31 1128.13 3666.72 1144.05 3664.85 1160.65 3662.95 1178.42 3656.53 1198.57 3649.8 1206.5 3632.3 1215.77 3620.84 1217.27 3620.84 1217.27 3607.97 1217.19 3600.72 1217.18 3600.72 1217.18 3593.33 1217.18 3588.1 1217.12 3582.86 1217.05 3577.63 1216.99 3572.25 1216.96 3566.86 1216.95 3561.48 1216.93 3547.35 1216.89 3533.22 1216.77 3519.09 1216.63 3504.66 1216.5 3490.23 1216.44 3475.79 1216.38 3447.5 1216.25 3419.22 1216.01 3390.93 1215.77 3390.93 1265.08 3390.93 1314.39 3390.93 1365.19 3409.19 1365 3427.45 1364.8 3446.27 1364.6 3457.87 1364.52 3469.46 1364.44 3481.05 1364.38 3499.44 1364.28 3517.83 1364.16 3536.22 1363.94 3551.05 1363.75 3565.88 1363.66 3580.71 1363.61 3586.36 1363.58 3592.01 1363.52 3597.66 1363.43 3605.59 1363.31 3613.52 1363.3 3621.45 1363.3 3628.22 1363.25 3628.22 1363.25 3635.12 1363.19 3655.05 1366.37 3666.79 1376.98 3679.72 1393.2 3687.17 1409.35 3689.04 1422.35 3685.94 1439.9 3679.05 1459.95 3669.49 1472.47 3651.46 1481.4 3640.04 1482.63 3629.42 1483.19 3618 1483.14 3614.67 1483.18 3611.34 1483.21 3607.91 1483.25 3596.93 1483.35 3585.95 1483.35 3574.97 1483.35 3567.32 1483.38 3559.67 1483.41 3552.02 1483.44 3536 1483.5 3519.98 1483.5 3503.95 1483.48 3483.44 1483.46 3462.92 1483.58 3442.41 1483.75 3426.62 1483.86 3410.82 1483.87 3395.03 1483.85 3387.47 1483.86 3379.9 1483.9 3372.34 1483.98 3361.76 1484.07 3351.18 1484.03 3340.6 1483.95 3335.93 1484.04 3335.93 1484.04 3331.17 1484.12 3315.58 1483.87 3305.68 1482.29 3293.26 1471.64 3279.75 1456.19 3279.33 1445.44 3279.23 1424.97 3279.19 1420.13 3279.16 1415.29 3279.13 1410.31 3279.11 1405 3279.09 1399.69 3279.08 1394.22 3279.05 1388.57 3279.01 1382.93 3278.98 1377.28 3278.88 1358.74 3278.82 1340.2 3278.77 1321.66 3278.75 1315.27 3278.73 1308.88 3278.71 1302.5 3278.62 1275.93 3278.55 1249.37 3278.51 1222.8 3278.45 1184.75 3278.32 1146.69 3278.1 1108.63 3277.95 1081.87 3277.88 1055.1 3277.86 1028.33 3277.84 1012.35 3277.8 996.363 3277.67 980.38 3277.56 965.338 3277.53 950.3 3277.58 935.259 3277.58 927.125 3277.49 918.991 3277.39 910.857 3277.65 870.977 3277.65 870.977 3289.06 855.619 3305.3 840.489 3317.74 841.572 3338.38 841.498Z" fill="url(#fill2)" fill-rule="evenodd"/><path d="M1752.32 821.289C1768.96 831.882 1780.4 844.204 1787.56 862.701 1790.37 882.199 1789.73 900.018 1784.12 918.919 1771.8 935.07 1756.9 952.169 1735.99 955.396 1709.53 957.699 1689.54 954.84 1668.31 937.587 1653 918.99 1644 901.757 1645.31 877.225 1649.14 854.703 1660.74 839.388 1678.55 825.58 1700.87 810.104 1728.02 809.398 1752.32 821.289Z" fill="#FFFFFF" fill-rule="evenodd"/></g></svg>