<?xml version="1.0" encoding="UTF-8"?>
<svg id="Layer_2" data-name="Layer 2" xmlns="http://www.w3.org/2000/svg" xmlns:xlink="http://www.w3.org/1999/xlink" viewBox="0 0 531.53 119.88">
  <defs>
    <style>
      .cls-1 {
        fill: url(#linear-gradient-2);
      }

      .cls-1, .cls-2, .cls-3 {
        fill-rule: evenodd;
      }

      .cls-2 {
        fill: #212121;
      }

      .cls-3 {
        fill: url(#linear-gradient);
      }
    </style>
    <linearGradient id="linear-gradient" x1="729.11" y1="-549.33" x2="811.91" y2="-665.75" gradientTransform="translate(-277 -576.84) scale(1 -1)" gradientUnits="userSpaceOnUse">
      <stop offset="0" stop-color="#2e6ded"/>
      <stop offset="1" stop-color="#579bf8"/>
    </linearGradient>
    <linearGradient id="linear-gradient-2" x1="683.02" y1="-582.11" x2="765.99" y2="-698.76" xlink:href="#linear-gradient"/>
  </defs>
  <g id="Layer_1-2" data-name="Layer 1">
    <path class="cls-2" d="M305.83,2.57c1.79,1.22,3.11,2.66,4.1,4.62.04.81.06,1.62.05,2.43v1.53c0,.55,0,1.1,0,1.66,0,.56,0,1.12,0,1.7,0,1.79,0,3.59-.01,5.38,0,1.21,0,2.43,0,3.64,0,2.98-.01,5.96-.02,8.94.35-.22.7-.45,1.05-.68q.69-.44,1.39-.89c.45-.29.91-.58,1.37-.88,6.17-3.81,12.99-4.36,20.04-3.05,4.38,1.08,7.91,2.98,11.26,5.97.29.25.59.51.89.77,4.86,4.51,7.24,11.01,8.01,17.49.05,1.3.07,2.58.08,3.87,0,.37,0,.74,0,1.13,0,1.22,0,2.44.01,3.66,0,.85,0,1.71,0,2.56,0,1.78,0,3.56,0,5.35,0,2.28.01,4.57.03,6.86,0,1.76.01,3.52.01,5.28,0,.84,0,1.69.01,2.53,0,1.18,0,2.35,0,3.53,0,.35,0,.7.01,1.06q-.02,2.34-.81,3.49c-1.85,1.16-4.49.71-6.61.7-.96,0-1.91,0-2.87.02-.6,0-1.2,0-1.82,0q-.83,0-1.67,0-1.38-.23-2.16-.96c-.87-1.59-.81-3.05-.79-4.81,0-.37,0-.73,0-1.11,0-.8,0-1.59,0-2.39,0-1.26,0-2.53,0-3.79-.01-3.59-.01-7.19,0-10.78,0-2.2,0-4.4-.01-6.6,0-.83,0-1.67,0-2.51.04-5.35-.17-9.32-3.77-13.58-3.5-2.9-6.71-4.05-11.22-3.95-3.02.37-6.13,1.68-8.23,3.9-3.77,5.15-3.88,10.33-3.9,16.51,0,1.19-.01,2.38-.02,3.57-.03,2.95-.04,5.89-.06,8.84-.01,2.5-.03,5-.06,7.5,0,1.17-.01,2.34-.02,3.52,0,.71-.01,1.43-.02,2.14,0,.33,0,.65,0,.99q-.03,2.25-1.07,3.29c-1.93.19-3.86.15-5.79.15-.96,0-1.92,0-2.88.02h-1.83c-.56,0-1.11,0-1.68,0q-1.39-.17-2.17-.68c-.95-1.36-.81-2.5-.81-4.15,0-.33,0-.67,0-1.01,0-1.12,0-2.24,0-3.36,0-.8,0-1.6-.01-2.4,0-2.18-.01-4.36-.01-6.54,0-1.82,0-3.64,0-5.46,0-4.29-.01-8.59,0-12.88,0-4.43,0-8.85-.02-13.28-.01-3.8-.02-7.6-.02-11.41,0-2.27,0-4.54-.01-6.81,0-2.14,0-4.27,0-6.41,0-.78,0-1.57,0-2.35q-.06-7.13,1.97-9.86c2.86-2.78,6.46-3.28,10.15-2Z"/>
    <path class="cls-2" d="M101.65,31.34c.66.56,1.32,1.12,1.96,1.7.29.25.59.51.89.77,4.86,4.5,7.24,10.99,8.01,17.46.04,1.29.07,2.58.07,3.87,0,.37,0,.74,0,1.13,0,1.22.01,2.44.01,3.66,0,.85,0,1.7,0,2.55,0,1.78,0,3.56,0,5.34,0,2.28.01,4.56.03,6.85,0,1.76.01,3.51.01,5.27,0,.84,0,1.68.01,2.53,0,1.17,0,2.35,0,3.52,0,.35,0,.7.01,1.06q-.02,2.34-.81,3.49c-1.85,1.16-4.49.71-6.61.69-.96,0-1.91,0-2.87.02-.6,0-1.2,0-1.82,0q-.83,0-1.67,0-1.38-.23-2.16-.96c-.86-1.59-.81-3.05-.79-4.81,0-.37,0-.73,0-1.11,0-.8,0-1.59,0-2.39,0-1.26,0-2.52,0-3.79-.01-3.59-.01-7.18,0-10.77,0-2.2,0-4.39-.01-6.59,0-.83,0-1.67,0-2.5.04-5.35-.17-9.31-3.77-13.56-3.5-2.89-6.71-4.05-11.22-3.95-3.02.37-6.13,1.67-8.24,3.89-3.77,5.14-3.88,10.31-3.9,16.48,0,1.19-.01,2.37-.02,3.56-.03,2.94-.04,5.88-.06,8.83-.01,2.5-.03,5-.06,7.49,0,1.17-.01,2.34-.02,3.51,0,.71-.01,1.42-.02,2.14,0,.33,0,.65,0,.99q-.03,2.24-1.07,3.28c-1.93.19-3.86.15-5.8.15-.96,0-1.92,0-2.88.02-.6,0-1.21,0-1.83,0-.56,0-1.11,0-1.68,0q-1.39-.17-2.17-.74c-.83-1.1-.81-1.77-.81-3.14,0-.48-.01-.95-.02-1.44,0-.52,0-1.05,0-1.58,0-.55,0-1.1-.01-1.67,0-1.51-.01-3.02-.01-4.53,0-1.26,0-2.53,0-3.79,0-2.98-.01-5.96,0-8.94,0-3.07,0-6.14-.02-9.21-.01-2.64-.02-5.28-.02-7.92,0-1.57,0-3.15-.01-4.72-.01-1.76,0-3.52,0-5.28,0-.52-.01-1.03-.02-1.57.03-3.14.48-5.44,2.65-7.81,2.47-1.81,4.93-2.33,7.96-1.87,2.48.86,3.6,2.19,5.15,4.21.31.31.62.62.94.94.33-.22.66-.44.99-.67,2.56-1.68,4.95-3.17,7.9-4.01q.47-.14.95-.29c7.58-2,16.57-.52,22.84,4.2Z"/>
    <path class="cls-2" d="M126.96,27.31c.4,0,.8,0,1.22-.01.44,0,.88,0,1.34,0,.46,0,.93,0,1.41-.01,1.54-.01,3.08-.02,4.63-.03.53,0,1.05,0,1.6,0,2.79-.01,5.58-.02,8.36-.03,2.88,0,5.75-.03,8.63-.05,2.21-.01,4.43-.02,6.64-.02,1.06,0,2.12-.01,3.18-.02,1.49-.01,2.97-.01,4.46-.01.44,0,.87-.02,1.32-.02,2.9.03,5.09.62,7.26,2.63,1.11,1.83,1.36,3.52.94,5.61-1.72,4.05-4.56,7.23-7.44,10.49-1.39,1.58-2.71,3.21-4,4.88-1.85,2.38-3.74,4.73-5.65,7.07-1.89,2.31-3.75,4.63-5.59,6.98-2.28,2.92-4.63,5.78-7.01,8.63-.27.32-.53.64-.81.97-.24.28-.47.57-.72.86-.56.7-1.06,1.44-1.56,2.19q.51,0,1.03,0c3.21-.03,6.42-.05,9.63-.06,1.65,0,3.3-.02,4.95-.03,1.9-.02,3.8-.02,5.7-.03.59,0,1.18-.01,1.79-.02h1.68c.48,0,.97,0,1.47,0,2.24.27,3.75,1.1,5.28,2.74,1.33,1.96,1.42,3.51,1.26,5.84-.82,2.19-1.81,3.37-3.74,4.67-1.28.43-2.05.53-3.37.54q-.6,0-1.21.01c-.44,0-.87,0-1.32,0-.46,0-.92,0-1.4,0-1.53,0-3.06.01-4.59.02q-.78,0-1.58,0c-2.76,0-5.52.02-8.29.02-2.85,0-5.71.02-8.56.04-2.19.01-4.39.01-6.58.02-1.05,0-2.11,0-3.16.02-1.47.01-2.94.01-4.42,0q-.65,0-1.32.02c-2.61-.02-4.11-.36-6.17-2.11-1.44-1.67-1.71-3.25-1.62-5.4.77-4.07,4.17-7.26,6.81-10.3,1.35-1.55,2.62-3.16,3.88-4.78,1.86-2.39,3.76-4.75,5.68-7.1,1.89-2.31,3.75-4.63,5.59-6.98,2.27-2.91,4.61-5.75,6.97-8.59.26-.32.53-.64.8-.97.23-.28.47-.56.71-.85.72-.89,1.4-1.79,2.08-2.71q-.52,0-1.05,0c-3.26,0-6.52-.01-9.77-.04-1.67-.01-3.35-.02-5.02-.02-1.62,0-3.23,0-4.85-.03-.91,0-1.83,0-2.74,0-3.1-.05-5.13-.18-7.35-2.46-1.61-2.05-1.79-3.39-1.76-5.94.42-2.26,1.81-3.63,3.52-5.08,1.07-.53,1.67-.53,2.85-.54Z"/>
    <path class="cls-2" d="M12.59,3.71c.71,0,1.42,0,2.13,0,1.49,0,2.97,0,4.46.02,1.9.01,3.8.01,5.7,0,1.47,0,2.94,0,4.4,0,.7,0,1.4,0,2.1,0,.98,0,1.96,0,2.94.02.56,0,1.11,0,1.69,0,2.03.24,3.61.9,5.11,2.3,1.77,2.32,2.41,3.82,2.04,6.77-.96,2.73-2.15,3.46-4.67,5.15h-9.81v58.51h8.88q4.16,2.08,5.14,4.21c.43,2.31.56,4.55-.55,6.68-1.35,1.67-2.55,2.47-4.59,3.15q-1.5.13-3.21.15c-.31,0-.63,0-.95.01-1.03.01-2.06.02-3.09.02-.35,0-.71,0-1.07,0-1.87.01-3.75.02-5.62.03-1.93,0-3.86.03-5.78.05-1.49.02-2.98.02-4.47.02-.71,0-1.42.01-2.13.02q-6.69.11-9.5-2.42c-1.65-1.87-1.77-3.81-1.71-6.23.23-1.66.92-2.6,2.02-3.84q2.8-1.87,12.62-1.87V17.99H4.38Q.34,14.51,0,11.02c.07-2.04.63-3.71,2.04-5.21,3.16-2.5,6.7-2.14,10.55-2.1Z"/>
    <path class="cls-2" d="M384.18,10.36c2.03,1.33,3.56,3,4.34,5.32.04.9.05,1.8.05,2.7,0,.52,0,1.05,0,1.59q0,.82-.01,1.65c0,.55,0,1.1,0,1.67,0,1.36-.01,2.73-.02,4.09.5-.03,1.01-.07,1.53-.1q6.08-.28,8.03,1.39c1.52,1.6,2.14,3,2.32,5.2-.06,1.88-.51,3.15-1.55,4.74-2.34,2.16-3.99,2.4-7.12,2.37-.6,0-1.19,0-1.81-.01-.46,0-.91-.01-1.39-.02,0,.61,0,1.21,0,1.84.03,5.71.05,11.41.06,17.12,0,2.93.02,5.87.03,8.8.02,2.83.02,5.66.03,8.49,0,1.08,0,2.16.02,3.24,0,1.51.01,3.02.01,4.53,0,.45,0,.9.01,1.36q0,.62,0,1.25c0,.36,0,.71,0,1.08-.22,1.2-.61,1.61-1.58,2.34q-1.39.17-3.08.17c-.6,0-1.21,0-1.83,0-.31,0-.63,0-.95-.01-.96-.01-1.93,0-2.89,0q-4.72-.03-5.79-1.09-.12-.88-.11-1.98c0-.42,0-.83,0-1.26,0-.46,0-.91,0-1.38v-1.45c0-1.59,0-3.18.01-4.77,0-1.1,0-2.2,0-3.3,0-2.9.01-5.8.02-8.7,0-2.96.01-5.91.02-8.87,0-5.81.03-11.61.05-17.42-.51.02-1.02.04-1.54.07-.68.02-1.36.03-2.03.05-.33.02-.67.03-1.01.05-2.45.04-3.77-.44-5.73-2.04-1.69-1.85-1.64-3.84-1.57-6.24.29-2.22,1.3-3.48,3.04-4.82,1.76-.83,3.34-.79,5.25-.72q.52,0,1.05.02c.85.02,1.7.04,2.55.07q-.02-.55-.04-1.1c-.06-1.66-.1-3.32-.13-4.98-.02-.57-.05-1.14-.07-1.73-.05-3.28.11-5.37,2.32-7.88,2.67-2.46,6.28-3.01,9.53-1.32Z"/>
    <path class="cls-2" d="M247.64,41.05c-3.81.3-7.55,1.83-10.82,4.27-3.52,3.17-5.18,7.55-5.61,12.15-.28,5.98.71,11.12,4.63,15.84,3.9,3.89,8.08,5.17,13.44,5.31,5.13-.12,8.58-1.82,12.19-5.46,4.3-5.05,4.84-10.66,4.47-17.03-.57-4.98-3.3-8.84-7.07-12.01-3.54-2.44-7.42-3.36-11.23-3.06ZM247.8,26.42c6.3.3,12.49,2.63,17.64,7.04.46.31.93.62,1.4.93-.05-.39-.1-.79-.15-1.2.2-2.17.96-3.35,2.49-4.88,1.85-1.41,3.54-2.03,5.88-1.87,2.42.43,4.35,1.21,6,3.07,1.96,2.81,2.02,5.28,1.98,8.63,0,.55,0,1.11,0,1.68,0,1.51,0,3.02-.01,4.53,0,1.59,0,3.18,0,4.77,0,2.68,0,5.35-.02,8.02-.02,3.07-.02,6.15-.02,9.22,0,2.97,0,5.95-.01,8.92,0,1.26,0,2.51,0,3.77,0,12.15-.73,22.81-9.46,32.09-3.65,3.52-7.97,5.38-12.75,6.89q-.61.21-1.23.43c-9.5,2.89-22.2,1.08-30.93-3.42-2.88-1.62-4.86-3.27-6.21-6.35-.33-2.14-.19-3.79.73-5.75,1.83-2.01,3.39-2.95,6.08-3.42,2.52.12,4.77,1.35,7.03,2.38,6.29,2.82,13.89,3.85,20.6,1.88,3.19-1.28,5.84-3.11,7.38-6.24.47-1.26.86-2.51,1.21-3.8.16-.46.31-.93.47-1.4.11-1.2.19-2.39.26-3.59.02-.33.04-.66.06-.99.05-.81.1-1.62.14-2.42q-.49.37-.99.75c-6.96,5.17-14.13,7.56-22.87,6.73-7.73-1.31-14.72-4.97-19.42-11.36-6.02-8.68-7.5-18.96-6.1-29.32,1.59-8.34,5.72-15.39,12.45-20.58,5.63-3.71,12.05-5.44,18.36-5.14Z"/>
    <path class="cls-2" d="M199.08,26.87c2.65,1.22,4.08,2.91,5.14,5.62.21,1.85.19,3.68.18,5.54,0,.56,0,1.11,0,1.68,0,1.52,0,3.03,0,4.55,0,1.59,0,3.18,0,4.77,0,2.67,0,5.33,0,8,0,3.08,0,6.17,0,9.25,0,2.65,0,5.3,0,7.95,0,1.58,0,3.16,0,4.74,0,1.76,0,3.52,0,5.28q0,.79,0,1.59c0,.48,0,.96-.01,1.45,0,.42,0,.83,0,1.26-.22,1.28-.54,1.7-1.58,2.46q-1.39.17-3.07.17-.9,0-1.83,0c-.31,0-.63,0-.95-.01-.96-.01-1.92-.01-2.88,0q-4.71-.03-5.77-1.09-.12-1.01-.13-2.3c0-.49,0-.97-.01-1.47,0-.53,0-1.07,0-1.62,0-.56,0-1.12,0-1.7,0-1.54-.01-3.09-.01-4.63,0-1.29,0-2.58,0-3.87,0-3.04,0-6.09,0-9.13,0-3.14,0-6.27-.02-9.41-.01-2.69-.02-5.39-.02-8.08,0-1.61,0-3.22-.01-4.82-.01-1.79,0-3.59,0-5.39q0-.8-.02-1.61c.02-2.9.16-4.64,2.11-6.83,2.85-2.51,5.12-2.84,8.88-2.34Z"/>
    <g>
      <path class="cls-3" d="M496.71,45.56c-1.37.17-2.71.53-4,1.11-.3.16-.6.32-.89.48-1.55.82-2.94,1.71-4.31,2.81-3.45,3.41-5.32,7.42-5.47,12.23.21,5.07,2.29,9.07,6.02,12.62,4.66,3.79,9.38,4.13,15.24,3.71,4.17-.71,7.53-3.71,9.99-6.93,2.74-4.12,3.64-8.5,2.72-13.36-1.16-4.02-3.8-7.68-7.35-10.02-3.56-1.97-7.85-3.16-11.95-2.65ZM523.97,3.66c3.65-.05,7.32,2.2,7.45,6.89.25,9.39,0,53.44,0,80.16h-15.18v-3.9l-1.15.52c-7.55,3.33-15.29,4.65-23.52,2.51l-1.05-.26c-7.82-2.12-14.5-7.06-18.49-13.53-.35-.59-.69-1.19-1.03-1.79l-.48-.83c-3.14-5.83-3.36-14.31-1.45-20.51,3.47-8.39,10.31-14.63,19.14-18.44,6.85-2.54,15.08-2.82,21.98-.26,2.21.86,4.39,1.77,6.53,2.75V10.55c0-4.49,3.61-6.84,7.26-6.89Z"/>
      <path class="cls-1" d="M416.59,3.87c.45,0,.89,0,1.35-.01,1.48-.01,2.97-.02,4.45-.02.51,0,1.01,0,1.54,0,2.68-.01,5.36-.02,8.05-.03,2.77,0,5.53-.03,8.3-.05,2.13-.01,4.26-.02,6.39-.02,1.02,0,2.04,0,3.06-.02,1.43-.01,2.86-.01,4.29,0q.63-.01,1.27-.02c2.92.03,4.63.72,7.04,2.55,1.43,2.2,1.85,4.16,1.74,6.8-.43,2.6-1.83,4.12-3.69,5.7-1.95,1.2-3.05,1.32-5.27,1.3q-.51,0-1.03,0c-1.12,0-2.23-.02-3.35-.04-.78,0-1.56,0-2.34,0-2.04,0-4.08-.03-6.13-.06-2.45-.03-4.91-.04-7.36-.05-3.72-.02-7.44-.07-11.16-.1v20.33c2.34-.02,4.68-.04,7.09-.06,1.87-.01,3.74-.02,5.61-.03,1.97,0,3.94-.02,5.92-.04,1.9-.02,3.8-.03,5.7-.03.73,0,1.45,0,2.17-.02,1.02-.01,2.03-.01,3.05-.01.58,0,1.16,0,1.75-.01,2.21.29,3.58,1.23,5.1,2.96,1.14,2.17.89,4.43.63,6.84-.87,2.74-1.79,3.82-4.17,5.08q-1.56.2-3.31.19-.99,0-1.99,0c-.71,0-1.42-.02-2.14-.03-.73,0-1.47,0-2.2,0-1.92,0-3.85-.02-5.77-.04-1.96-.02-3.93-.03-5.89-.03-3.85-.02-7.7-.05-11.55-.08v20.17c2.48-.03,4.97.03,7.53,0,1.58-.01,3.16,0,4.73,0,2.5-.01,5.01.03,7.51,0,2.02-.03,4.04,0,6.05,0,.77,0,1.54.01,2.31,0,1.08-.02,2.16,0,3.24,0,.92,0,.92,0,1.86,0,2.71.43,4.31,1.77,6.07,3.98,1.01,2.2,1.27,3.97.85,6.36-.94,2.73-2.24,4.71-4.69,5.92-1.55.17-3,0-4.55,0-.45,0-.91,0-1.37,0-1.49.01-2.99,0-4.48,0-1.04,0-2.08,0-3.12,0-2.18,0-4.36,0-6.54,0-2.79,0-5.58-.02-8.37,0-2.15.01-4.3,0-6.45,0-1.03,0-2.06-.01-3.09,0-1.44.01-2.88.01-4.32,0-.64.01-.64-.01-1.28,0-2.12-.03-3.47-.15-5.16-1.6-1.84-2.1-1.9-3.57-1.91-6.35,0-.66,0-1.32-.01-1.99,0-.72,0-1.45,0-2.19,0-.77,0-1.54-.01-2.31-.01-2.52-.02-5.05-.03-7.57,0-.87,0-1.74,0-2.61-.01-3.62-.02-7.23-.03-10.85,0-5.18-.03-10.36-.06-15.54-.02-3.64-.03-7.28-.03-10.93,0-2.17,0-4.35-.03-6.53-.01-2.05-.02-4.09-.01-6.14,0-1.11-.01-2.21-.03-3.32q.04-5.43,1.59-7.52c2.21-2.06,3.9-1.91,6.71-1.92Z"/>
    </g>
    <path class="cls-2" d="M200.76,1.12c2.26,1.44,3.82,3.12,4.8,5.64.38,2.65.3,5.08-.47,7.65-1.68,2.2-3.7,4.52-6.55,4.96-3.6.31-6.32-.08-9.21-2.42-2.08-2.53-3.31-4.88-3.13-8.21.52-3.06,2.1-5.15,4.52-7.03,3.04-2.11,6.73-2.2,10.04-.58Z"/>
  </g>
</svg>